<svg width="45" height="44" viewBox="0 0 45 44" fill="none" xmlns="http://www.w3.org/2000/svg">
<path d="M28.9548 22.4531V21.5847C28.9548 15.142 26.8488 8.84403 22.8636 3.37683C22.6584 3.09811 22.3344 2.93195 21.9888 2.93195C21.6432 2.93195 21.3192 3.09811 21.114 3.37683C17.1288 8.84403 15.0228 15.142 15.0228 21.5847V22.4531C10.0872 25.1599 9.36896 31.4954 9.34196 31.7795C9.30956 32.0796 9.41216 32.3798 9.61196 32.6049C9.81716 32.83 10.1088 32.9587 10.4112 32.9587H33.5502C33.858 32.9587 34.1496 32.83 34.3494 32.6049C34.5546 32.3798 34.6518 32.0796 34.6194 31.7795C34.6032 31.4954 33.8904 25.1599 28.9548 22.4531ZM15.0228 25.0366V30.8147H11.7126C12.0744 29.3139 12.96 26.7143 15.0228 25.0366ZM17.1828 21.5847C17.1828 16.0854 18.8406 10.6932 21.9888 5.90139C25.137 10.6932 26.7948 16.0854 26.7948 21.5847V30.8147H17.1828V21.5847ZM28.9548 30.8147V25.0366C31.0068 26.7143 31.9032 29.3139 32.265 30.8147H28.9548Z" fill="#0067F4"/>
<path d="M23.112 15.0294H20.3742C19.7802 15.0294 19.2942 15.5118 19.2942 16.1014C19.2942 16.691 19.7802 17.1734 20.3742 17.1734H23.112C23.706 17.1734 24.192 16.691 24.192 16.1014C24.192 15.5118 23.7114 15.0294 23.112 15.0294Z" fill="#0067F4"/>
<path d="M18.2088 35.3975C17.6148 35.3975 17.1288 35.8799 17.1288 36.4695V42.5638C17.1288 43.1534 17.6148 43.6358 18.2088 43.6358C18.8028 43.6358 19.2888 43.1534 19.2888 42.5638V36.4695C19.2888 35.8799 18.8028 35.3975 18.2088 35.3975Z" fill="#0067F4"/>
<path d="M21.9888 35.3975C21.3948 35.3975 20.9088 35.8799 20.9088 36.4695V42.5638C20.9088 43.1534 21.3948 43.6358 21.9888 43.6358C22.5828 43.6358 23.0688 43.1534 23.0688 42.5638V36.4695C23.0688 35.8799 22.5828 35.3975 21.9888 35.3975Z" fill="#0067F4"/>
<path d="M25.7688 35.3975C25.1748 35.3975 24.6888 35.8799 24.6888 36.4695V42.5638C24.6888 43.1534 25.1748 43.6358 25.7688 43.6358C26.3628 43.6358 26.8488 43.1534 26.8488 42.5638V36.4695C26.8488 35.8799 26.3682 35.3975 25.7688 35.3975Z" fill="#0067F4"/>
<path d="M6.4476 16.8733H4.8438V15.2814C4.8438 14.6918 4.3578 14.2094 3.7638 14.2094C3.1698 14.2094 2.6838 14.6918 2.6838 15.2814V16.8733H1.08C0.486 16.8733 0 17.3557 0 17.9453C0 18.5349 0.486 19.0173 1.08 19.0173H2.6838V20.6092C2.6838 21.1988 3.1698 21.6812 3.7638 21.6812C4.3578 21.6812 4.8438 21.1988 4.8438 20.6092V19.0173H6.4476C7.0416 19.0173 7.5276 18.5349 7.5276 17.9453C7.5276 17.3557 7.047 16.8733 6.4476 16.8733Z" fill="#0067F4"/>
<path d="M28.3824 3.92888H29.1006V4.64176C29.1006 5.23136 29.5866 5.71376 30.1806 5.71376C30.7746 5.71376 31.2606 5.23136 31.2606 4.64176V3.92888H31.9788C32.5728 3.92888 33.0588 3.44648 33.0588 2.85688C33.0588 2.26728 32.5728 1.78488 31.9788 1.78488H31.2606V1.072C31.2606 0.4824 30.7746 0 30.1806 0C29.5866 0 29.1006 0.4824 29.1006 1.072V1.78488H28.3824C27.7884 1.78488 27.3024 2.26728 27.3024 2.85688C27.3024 3.44648 27.783 3.92888 28.3824 3.92888Z" fill="#0067F4"/>
<path d="M43.1676 10.3073H40.4244V7.58439C40.4244 6.99479 39.9384 6.51239 39.3444 6.51239C38.7504 6.51239 38.2644 6.99479 38.2644 7.58439V10.3073H35.5212C34.9272 10.3073 34.4412 10.7897 34.4412 11.3793C34.4412 11.9689 34.9272 12.4513 35.5212 12.4513H38.2644V15.1742C38.2644 15.7638 38.7504 16.2462 39.3444 16.2462C39.9384 16.2462 40.4244 15.7638 40.4244 15.1742V12.4513H43.1676C43.7616 12.4513 44.2476 11.9689 44.2476 11.3793C44.2476 10.7897 43.7616 10.3073 43.1676 10.3073Z" fill="#0067F4"/>
</svg>
