<svg width="736" height="608" viewBox="0 0 736 608" fill="none" xmlns="http://www.w3.org/2000/svg">
<path d="M77.9908 534.435H165.742L165.742 250.432H77.9908L77.9908 534.435Z" fill="white"/>
<path opacity="0.7" d="M77.9908 534.435H165.742L165.742 250.432H77.9908L77.9908 534.435Z" fill="#5468FF"/>
<path d="M3.5038 534.389H77.9911L77.9911 250.477H3.5038L3.5038 534.389Z" fill="#5468FF"/>
<path d="M88.4792 323.11H158.883V261.932H88.4792L88.4792 323.11Z" fill="white"/>
<path d="M88.4792 391.227H158.883V330.049H88.4792L88.4792 391.227Z" fill="white"/>
<path opacity="0.6" d="M88.4792 391.227H158.883V330.049H88.4792L88.4792 391.227Z" fill="#5468FF"/>
<path d="M88.4792 459.344H158.883V398.166H88.4792L88.4792 459.344Z" fill="white"/>
<path d="M88.4792 527.461H158.883V466.283H88.4792L88.4792 527.461Z" fill="white"/>
<path opacity="0.6" d="M88.4792 323.11H158.883V261.932H88.4792L88.4792 323.11Z" fill="#5468FF"/>
<path opacity="0.6" d="M88.4792 459.344H158.883V398.166H88.4792L88.4792 459.344Z" fill="#5468FF"/>
<path opacity="0.6" d="M88.4792 527.461H158.883V466.283H88.4792L88.4792 527.461Z" fill="#5468FF"/>
<path d="M126.132 275.674C127.483 275.674 128.578 274.579 128.578 273.228C128.578 271.877 127.483 270.782 126.132 270.782C124.782 270.782 123.687 271.877 123.687 273.228C123.687 274.579 124.782 275.674 126.132 275.674Z" fill="white"/>
<path d="M126.132 344.576C127.483 344.576 128.578 343.481 128.578 342.13C128.578 340.779 127.483 339.684 126.132 339.684C124.782 339.684 123.687 340.779 123.687 342.13C123.687 343.481 124.782 344.576 126.132 344.576Z" fill="white"/>
<path d="M126.132 413.489C127.483 413.489 128.578 412.394 128.578 411.043C128.578 409.693 127.483 408.598 126.132 408.598C124.782 408.598 123.687 409.693 123.687 411.043C123.687 412.394 124.782 413.489 126.132 413.489Z" fill="white"/>
<path d="M126.132 482.391C127.483 482.391 128.578 481.296 128.578 479.945C128.578 478.595 127.483 477.5 126.132 477.5C124.782 477.5 123.687 478.595 123.687 479.945C123.687 481.296 124.782 482.391 126.132 482.391Z" fill="white"/>
<path d="M155.595 591.403H165.742V534.434H155.595V591.403Z" fill="#5468FF"/>
<path d="M78.3437 591.403H88.4907V534.434H78.3437V591.403Z" fill="#5468FF"/>
<path d="M4.58431 591.403H14.7313L14.7313 534.434H4.58431L4.58431 591.403Z" fill="#5468FF"/>
<path d="M589.562 495.041H508.898L523.425 581.279C523.728 583.079 524.535 584.756 525.754 586.115C526.972 587.474 528.551 588.46 530.307 588.957L530.591 589.037C530.83 589.094 531.058 589.173 531.308 589.219C531.848 589.324 532.396 589.385 532.946 589.401V589.481L533.344 589.424H569.291C569.955 589.424 570.618 589.359 571.27 589.23C573.364 588.91 575.295 587.912 576.768 586.39C578.241 584.867 579.175 582.904 579.427 580.801L586.434 521.375L586.752 519.009L589.528 495.473L589.562 495.041ZM574.342 550.053H566.06L566.891 525.027H576.48L574.342 550.053ZM577.288 525.027H585.251L582.305 550.053H575.149L577.288 525.027ZM553.65 577.798L553.149 556.059H565.071L564.343 577.798H553.65ZM540.761 556.059H552.341L552.842 577.798H542.456L540.761 556.059ZM541.66 577.798H531.945C531.023 571.928 529.818 564.295 528.532 556.059H539.965L541.66 577.798ZM540.34 550.053L538.383 525.027H551.67L552.25 550.053H540.34ZM553.058 550.053L552.478 525.027H566.128L565.298 550.053H553.058ZM552.341 519.02L551.716 495.837H567.073L566.299 519.02H552.341ZM551.545 519.02H537.894L536.086 495.837H550.976L551.545 519.02ZM537.121 519.02H522.651L521.218 510.068C519.716 500.694 519.147 497.168 518.84 495.848H535.255L537.121 519.02ZM537.587 525.027L539.544 550.053H527.565L526.348 542.374C525.415 536.47 524.483 530.555 523.595 525.027H537.587ZM526.814 550.053H519.034L514.813 525.027H522.856C524.027 532.762 525.393 541.362 526.758 550.053H526.814ZM527.759 556.059C528.896 563.578 530.113 571.007 531.171 577.798H523.698L520.035 556.059H527.759ZM565.184 577.798L565.912 556.059H573.875L572.01 577.798H565.184ZM567.141 519.02L567.914 495.837H579.017L577.026 519.02H567.141ZM518.078 495.837C518.397 497.509 519.875 506.632 521.843 519.02H513.744L509.842 495.837H518.078ZM578.994 577.741H572.76L574.626 556.002H581.554L578.994 577.741ZM585.922 518.963H577.8L579.791 495.78H588.652L585.922 518.963Z" fill="#5468FF"/>
<path d="M735.909 265.982C735.909 261.784 730.688 258.36 724.249 258.36H139.658C133.22 258.36 127.998 261.773 127.998 265.982V279.872H170.975V595.066H185.308V279.86H675.596V595.487H689.929V279.86H735.886L735.909 265.982Z" fill="white"/>
<path opacity="0.2" d="M735.909 265.982C735.909 261.784 730.688 258.36 724.249 258.36H139.658C133.22 258.36 127.998 261.773 127.998 265.982V279.872H170.975V595.066H185.308V279.86H675.596V595.487H689.929V279.86H735.886L735.909 265.982Z" fill="#5468FF"/>
<path d="M400.932 258.61H462.667V95.2684H400.932V258.61Z" fill="#5468FF"/>
<path opacity="0.2" d="M400.932 258.61H462.667V95.2684H400.932V258.61Z" fill="#000D44"/>
<path d="M548.872 44.0326V201.289L489.15 200.333L426.584 199.332L406.825 199.014L343.542 198.001L305.332 197.341V44.0326C305.335 41.3947 306.385 38.8659 308.251 37.0017C310.118 35.1375 312.648 34.0904 315.286 34.0904H538.895C540.203 34.0874 541.499 34.3422 542.709 34.8404C543.918 35.3386 545.018 36.0703 545.944 36.9936C546.871 37.917 547.606 39.014 548.109 40.2218C548.611 41.4296 548.87 42.7245 548.872 44.0326Z" fill="#5468FF"/>
<path opacity="0.2" d="M548.872 44.0326V201.289L489.15 200.333L426.584 199.332L406.825 199.014L343.542 198.001L305.332 197.341V44.0326C305.335 41.3947 306.385 38.8659 308.251 37.0017C310.118 35.1375 312.648 34.0904 315.286 34.0904H538.895C540.203 34.0874 541.499 34.3422 542.709 34.8404C543.918 35.3386 545.018 36.0703 545.944 36.9936C546.871 37.917 547.606 39.014 548.109 40.2218C548.611 41.4296 548.87 42.7245 548.872 44.0326Z" fill="#000D44"/>
<path d="M538.85 47.5708H315.354C314.845 47.5708 314.432 47.9833 314.432 48.4922V187.217C314.432 187.726 314.845 188.139 315.354 188.139H538.85C539.358 188.139 539.771 187.726 539.771 187.217V48.4922C539.771 47.9833 539.358 47.5708 538.85 47.5708Z" fill="white"/>
<path d="M305.412 196.625V208.365C305.412 212.966 307.239 217.378 310.493 220.631C313.746 223.885 318.158 225.712 322.759 225.712H531.524C536.125 225.712 540.537 223.885 543.791 220.631C547.044 217.378 548.872 212.966 548.872 208.365V196.625H305.412Z" fill="#5468FF"/>
<path d="M377.282 259.236H479.071C480.579 259.236 482.026 258.637 483.093 257.57C484.16 256.504 484.759 255.057 484.759 253.549C484.759 252.04 484.16 250.593 483.093 249.527C482.026 248.46 480.579 247.861 479.071 247.861H377.282C375.774 247.861 374.327 248.46 373.26 249.527C372.194 250.593 371.594 252.04 371.594 253.549C371.594 255.057 372.194 256.504 373.26 257.57C374.327 258.637 375.774 259.236 377.282 259.236Z" fill="#5468FF"/>
<path d="M360.151 572.36C361.044 572.263 361.893 571.925 362.608 571.382C362.608 571.541 362.699 571.712 362.745 571.871C362.899 572.51 362.915 573.175 362.792 573.821C362.67 574.467 362.411 575.079 362.033 575.617C361.655 576.155 361.167 576.607 360.602 576.941C360.036 577.276 359.405 577.487 358.752 577.559C349.123 578.628 339.444 579.186 329.755 579.231C314.899 579.231 302.454 578.651 298.62 578.446C298.287 578.431 297.974 578.285 297.748 578.04C297.522 577.795 297.402 577.471 297.415 577.138C297.415 576.239 297.494 574.863 297.574 573.236C302.124 573.452 314.717 573.998 329.733 573.998C339.893 573.965 350.045 573.418 360.151 572.36Z" fill="white"/>
<path d="M321.724 555.388C321.724 555.388 347.706 556.23 354.918 559.358C359.15 561.19 361.436 566.934 362.619 571.382C361.904 571.925 361.055 572.263 360.162 572.361C350.058 573.43 339.905 573.988 329.744 574.033C314.728 574.033 302.09 573.487 297.585 573.271C297.79 569.005 298.222 562.748 299.098 557.117C306.684 557.653 314.308 557.07 321.724 555.388Z" fill="#000D44"/>
<path d="M425.629 572.201C425.805 572.175 425.98 572.137 426.152 572.087C426.232 572.417 426.334 572.759 426.402 573.066C426.518 573.557 426.528 574.067 426.432 574.563C426.335 575.058 426.135 575.527 425.843 575.939C425.552 576.351 425.176 576.696 424.741 576.952C424.306 577.208 423.821 577.368 423.319 577.423C412.768 578.587 402.163 579.195 391.547 579.243C375.883 579.243 362.79 578.651 358.854 578.458C358.538 578.434 358.244 578.29 358.032 578.055C357.82 577.82 357.707 577.512 357.716 577.195C357.716 576.308 357.796 574.92 357.876 573.293C363.302 573.532 376.27 574.021 391.536 574.021C405.892 574.021 419.179 572.872 425.629 572.201Z" fill="white"/>
<path d="M383.141 555.388C383.141 555.388 410.351 556.23 417.905 559.358C422.592 561.292 424.992 567.583 426.164 572.099C425.992 572.148 425.817 572.186 425.64 572.213C419.19 572.872 405.904 574.033 391.514 574.033C376.247 574.033 363.279 573.544 357.853 573.305C358.108 567.881 358.648 562.474 359.468 557.106C367.401 557.643 375.369 557.065 383.141 555.388Z" fill="#000D44"/>
<path d="M241.162 324.919C300.486 323.155 334.442 336.999 337.206 355.405C339.971 373.811 326.616 555.615 326.616 555.615C326.616 555.615 316.298 561.303 299.041 557.89C299.041 557.89 287.882 497.395 284.355 468.615C280.829 439.835 284.06 400.748 284.06 400.748C284.06 400.748 228.558 420.166 195.08 399.019C161.602 377.872 192.145 319.128 192.145 319.128L241.162 324.919Z" fill="#1B255E"/>
<path d="M301.362 324.919C360.686 323.155 394.642 336.999 397.406 355.405C400.17 373.811 386.03 555.502 386.03 555.502C386.03 555.502 377.465 560.837 359.252 558.482C359.252 558.482 348.093 497.441 344.566 468.615C341.04 439.789 344.271 400.748 344.271 400.748C344.271 400.748 288.769 420.166 255.291 399.019C221.812 377.872 252.356 319.128 252.356 319.128L301.362 324.919Z" fill="#1B255E"/>
<path d="M277.086 26.5488C280.994 35.9539 283.567 45.8594 284.731 55.9775C284.731 55.9775 290.077 65.3851 290.191 68.7977C290.305 72.2104 285.197 73.5868 285.197 73.5868C285.197 73.5868 285.197 92.1859 280.545 98.0671C275.892 103.948 259.363 104.062 259.363 104.062C259.363 104.062 257.327 109.295 262.184 129.748H215.761C215.761 129.748 221.244 114.96 222.245 91.5603C223.246 68.1607 212.268 26.5488 277.086 26.5488Z" fill="#F5B58F"/>
<path d="M211.051 20.531C211.994 19.4941 213.051 18.5669 214.202 17.7667C218.767 14.5211 223.971 12.2872 229.468 11.2144C236.658 9.61046 244.075 9.22369 251.321 7.85862C259.739 6.27741 267.849 3.37664 275.949 0.578244C276.422 0.340575 276.938 0.202774 277.467 0.173418C277.995 0.144062 278.524 0.223783 279.02 0.407613C279.423 0.704239 279.759 1.08053 280.01 1.51306C280.261 1.94558 280.419 2.42506 280.476 2.92162C281.399 6.81222 281.569 10.8433 280.977 14.7977L284.06 11.9766C285.095 15.5371 284.401 19.3821 283.172 22.8858C281.944 26.3894 280.203 29.7111 279.054 33.2148C276.779 40.3359 276.973 48.003 277.985 55.4654C278.411 57.4646 278.446 59.5275 278.088 61.54C277.576 63.5193 275.972 65.3735 273.935 65.4532C273.832 63.1154 273.219 60.8285 272.138 58.753C270.91 56.7736 268.475 55.3403 266.246 56.0228C264.016 56.7054 262.833 59.0942 262.503 61.358C261.995 64.591 262.648 67.8995 264.346 70.6973C265.153 72.0169 266.223 73.3933 265.961 74.9063C265.752 75.6904 265.362 76.4149 264.824 77.0221L259.693 83.9385C257.418 86.9303 255.143 89.9903 252.072 92.0493C248.458 94.2038 244.355 95.4019 240.15 95.5302C236.098 95.9196 232.009 95.5727 228.08 94.5064C226.449 94.12 224.937 93.3387 223.678 92.2313C222.658 91.0969 221.852 89.7863 221.301 88.3636C218.508 82.3463 216.091 76.1612 214.066 69.8441C210.329 57.7999 208.634 45.2155 209.049 32.6119C208.976 29.3879 209.22 26.1644 209.777 22.9881C210.004 22.0808 210.44 21.2392 211.051 20.531Z" fill="#000D44"/>
<path d="M207.479 301.678C202.394 297.913 196.843 293.715 191.553 289.302C179.541 279.212 168.802 268.257 167.483 260.271C164.548 242.389 166.846 189.242 168.268 164.148C168.268 162.635 168.404 161.213 168.495 159.882C169.917 136.175 184.694 126.301 191.064 122.456C194.318 153.273 199.63 222.209 200.222 225.78C201.018 230.331 207.479 301.678 207.479 301.678Z" fill="#5468FF"/>
<path d="M207.934 123.4C207.934 123.4 210.755 111.581 213.895 108.612C217.035 105.643 236.737 105.484 243.039 106.269C249.341 107.054 268.145 111.82 270.193 113.356C272.24 114.891 275.289 123.4 275.289 123.4H207.934Z" fill="#1634E2"/>
<path d="M173.284 154.239C170.713 112.15 215.749 116.177 215.749 116.177C273.071 112.605 299.997 129.111 303.114 153.716C303.341 155.457 303.478 157.334 303.614 159.313C305.082 184.715 297.335 225.712 293.66 256.347C293.592 256.915 293.547 257.484 293.49 258.064C292.352 275.128 301.362 324.896 301.362 324.896C301.362 324.896 278.03 329.605 241.299 329.605C204.567 329.605 189.506 326.193 189.506 326.193C189.506 326.193 195.751 279.371 189.506 246.564C183.784 217.715 174.752 178.64 173.284 154.239Z" fill="#5468FF"/>
<path d="M271.717 179.391L265.153 121.819C265.153 121.819 291.431 119.726 302.989 129.429C307.323 133.069 317.026 156.651 322.395 180.619C317.197 184.601 302.659 191.381 283.422 195.783C278.485 186.137 274.026 179.05 271.717 179.391Z" fill="#5468FF"/>
<path d="M424.309 258.895C423.303 255.44 421.71 252.185 419.6 249.271C416.187 244.561 405.631 243.936 389.17 245.858C388.033 245.437 346.876 230.069 328.698 228.18C326.832 218.295 323.146 199.298 318.937 180.54C313.739 184.521 304.297 184.203 285.061 188.605C294.389 210.855 305.446 245.278 305.446 245.278C318.198 263.82 365.52 260.624 382.72 258.792L424.309 258.895Z" fill="#F5B58F"/>
<path d="M129.238 596.829C129.821 596.98 130.429 597.011 131.025 596.919C131.62 596.828 132.191 596.616 132.702 596.297C133.213 595.977 133.653 595.557 133.996 595.062C134.34 594.567 134.579 594.007 134.698 593.417L188.96 399.827L172.966 395.015L126.064 590.823C125.752 592.04 125.904 593.329 126.491 594.439C127.077 595.55 128.057 596.402 129.238 596.829Z" fill="white"/>
<path opacity="0.6" d="M129.238 596.829C129.821 596.98 130.429 597.011 131.025 596.919C131.62 596.828 132.191 596.616 132.702 596.297C133.213 595.977 133.653 595.557 133.996 595.062C134.34 594.567 134.579 594.007 134.698 593.417L188.96 399.827L172.966 395.015L126.064 590.823C125.752 592.04 125.904 593.329 126.491 594.439C127.077 595.55 128.057 596.402 129.238 596.829Z" fill="#5468FF"/>
<path d="M356.875 596.829C356.291 596.98 355.683 597.011 355.088 596.919C354.492 596.828 353.922 596.616 353.411 596.297C352.9 595.977 352.46 595.557 352.116 595.062C351.773 594.567 351.534 594.007 351.414 593.417L297.141 399.827L313.136 395.015L360.037 590.789C360.36 592.009 360.214 593.305 359.629 594.423C359.044 595.541 358.061 596.399 356.875 596.829Z" fill="white"/>
<path opacity="0.6" d="M356.875 596.829C356.291 596.98 355.683 597.011 355.088 596.919C354.492 596.828 353.922 596.616 353.411 596.297C352.9 595.977 352.46 595.557 352.116 595.062C351.773 594.567 351.534 594.007 351.414 593.417L297.141 399.827L313.136 395.015L360.037 590.789C360.36 592.009 360.214 593.305 359.629 594.423C359.044 595.541 358.061 596.399 356.875 596.829Z" fill="#5468FF"/>
<path d="M290.43 596.943C289.827 597.016 289.215 596.967 288.631 596.799C288.047 596.631 287.502 596.348 287.029 595.966C286.556 595.584 286.165 595.112 285.877 594.576C285.59 594.041 285.413 593.453 285.357 592.848L253.232 393.65L269.601 390.954L294.207 591.392C294.399 592.624 294.115 593.882 293.414 594.913C292.713 595.944 291.646 596.669 290.43 596.943Z" fill="white"/>
<path opacity="0.6" d="M290.43 596.943C289.827 597.016 289.215 596.967 288.631 596.799C288.047 596.631 287.502 596.348 287.029 595.966C286.556 595.584 286.165 595.112 285.877 594.576C285.59 594.041 285.413 593.453 285.357 592.848L253.232 393.65L269.601 390.954L294.207 591.392C294.399 592.624 294.115 593.882 293.414 594.913C292.713 595.944 291.646 596.669 290.43 596.943Z" fill="#5468FF"/>
<path d="M192.782 596.943C193.385 597.015 193.997 596.966 194.581 596.798C195.165 596.631 195.71 596.347 196.183 595.966C196.656 595.584 197.047 595.111 197.335 594.576C197.622 594.04 197.799 593.453 197.856 592.848L229.98 393.638L213.588 390.942L189.005 591.391C188.813 592.623 189.097 593.882 189.798 594.913C190.499 595.943 191.566 596.669 192.782 596.943Z" fill="white"/>
<path opacity="0.6" d="M192.782 596.943C193.385 597.015 193.997 596.966 194.581 596.798C195.165 596.631 195.71 596.347 196.183 595.966C196.656 595.584 197.047 595.111 197.335 594.576C197.622 594.04 197.799 593.453 197.856 592.848L229.98 393.638L213.588 390.942L189.005 591.391C188.813 592.623 189.097 593.882 189.798 594.913C190.499 595.943 191.566 596.669 192.782 596.943Z" fill="#5468FF"/>
<path d="M113.358 199.617V199.867C113.483 200.686 113.642 201.619 113.87 202.665C114.222 204.133 114.655 205.657 115.166 207.295C117.908 216.339 122.458 228.807 123.459 252.525C124.278 272.284 120.922 299.164 122.413 323.531C123.903 347.897 128.1 382.092 153.684 400.384C158.63 403.989 164.091 406.826 169.883 408.802C174.985 410.595 180.218 411.99 185.536 412.977C193.852 414.521 202.262 415.509 210.71 415.935C216.011 416.231 221.323 416.367 226.556 416.424C237.226 416.515 247.544 416.196 256.622 415.935L263.299 415.764C266.029 415.696 269.089 415.537 272.4 415.275C280.465 414.661 290.123 413.523 300.293 411.999C305.537 411.214 310.929 410.315 316.309 409.36C346.216 403.968 375.781 396.062 379.535 389.123C380.785 387.11 381.292 384.724 380.968 382.377C380.925 382.022 380.849 381.671 380.741 381.33C380.503 380.612 380.166 379.93 379.74 379.305C379.415 378.78 379.033 378.292 378.602 377.849C377.085 376.409 375.222 375.386 373.192 374.88C371.163 374.373 369.037 374.401 367.022 374.96C354.27 378.213 316.241 385.46 299.178 363.789C278.486 337.534 287.495 339.753 278.588 275.81C270.216 215.326 253.277 203.12 222.063 191.028C195.262 180.722 155.527 182.212 133.891 185.34C129.74 185.856 125.631 186.662 121.594 187.752C119.495 188.369 117.615 189.569 116.171 191.212C114.727 192.855 113.779 194.874 113.437 197.035C113.299 197.888 113.272 198.756 113.358 199.617Z" fill="white"/>
<path opacity="0.5" d="M113.358 199.617V199.867C113.483 200.686 113.642 201.619 113.87 202.665C114.222 204.133 114.655 205.657 115.166 207.295C117.908 216.339 122.458 228.807 123.459 252.525C124.278 272.284 120.922 299.164 122.413 323.531C123.903 347.897 128.1 382.092 153.684 400.384C158.63 403.989 164.091 406.826 169.883 408.802C174.985 410.595 180.218 411.99 185.536 412.977C193.852 414.521 202.262 415.509 210.71 415.935C216.011 416.231 221.323 416.367 226.556 416.424C237.226 416.515 247.544 416.196 256.622 415.935L263.299 415.764C266.029 415.696 269.089 415.537 272.4 415.275C280.465 414.661 290.123 413.523 300.293 411.999C305.537 411.214 310.929 410.315 316.309 409.36C346.216 403.968 375.781 396.062 379.535 389.123C380.785 387.11 381.292 384.724 380.968 382.377C380.925 382.022 380.849 381.671 380.741 381.33C380.503 380.612 380.166 379.93 379.74 379.305C379.415 378.78 379.033 378.292 378.602 377.849C377.085 376.409 375.222 375.386 373.192 374.88C371.163 374.373 369.037 374.401 367.022 374.96C354.27 378.213 316.241 385.46 299.178 363.789C278.486 337.534 287.495 339.753 278.588 275.81C270.216 215.326 253.277 203.12 222.063 191.028C195.262 180.722 155.527 182.212 133.891 185.34C129.74 185.856 125.631 186.662 121.594 187.752C119.495 188.369 117.615 189.569 116.171 191.212C114.727 192.855 113.779 194.874 113.437 197.035C113.299 197.888 113.272 198.756 113.358 199.617Z" fill="#5468FF"/>
<path d="M113.358 199.617V199.867C113.483 200.686 113.642 201.619 113.87 202.665C114.222 204.133 114.654 205.657 115.166 207.295C117.908 216.339 122.458 228.806 123.459 252.525C124.278 272.284 120.922 299.164 122.413 323.531C123.903 347.897 128.1 382.092 153.684 400.384C158.63 403.988 164.091 406.826 169.883 408.802C174.985 410.595 180.218 411.99 185.536 412.977C193.852 414.521 202.262 415.509 210.71 415.935C216.011 416.23 221.323 416.367 226.556 416.424C237.226 416.515 247.544 416.196 256.622 415.935L263.299 415.764C266.029 415.696 269.089 415.537 272.4 415.275C280.465 414.661 290.123 413.523 300.293 411.999C305.537 411.214 310.929 410.315 316.309 409.36C346.216 403.968 375.781 396.062 379.535 389.122C380.785 387.11 381.292 384.724 380.968 382.377C380.925 382.022 380.849 381.671 380.741 381.33C380.503 380.612 380.166 379.93 379.74 379.305C379.114 378.384 365.008 384.345 363.643 384.868C329.414 397.973 282.365 388.94 276.609 346.896C271.728 311.075 273.196 276.527 260.25 241.957C234.701 173.862 133.583 192.507 113.369 197C113.25 197.868 113.246 198.748 113.358 199.617Z" fill="#5468FF"/>
<path d="M326.274 174.17C325.945 174.17 328.265 149.064 331.462 118.168C334.658 87.2715 337.502 62.2452 337.821 62.2793C338.139 62.3135 335.83 87.3852 332.633 118.281C329.437 149.177 326.593 174.204 326.274 174.17Z" fill="#5468FF"/>
<path d="M357.125 68.4448C363.615 68.4448 368.876 68.1799 368.876 67.8532C368.876 67.5266 363.615 67.2617 357.125 67.2617C350.635 67.2617 345.374 67.5266 345.374 67.8532C345.374 68.1799 350.635 68.4448 357.125 68.4448Z" fill="#5468FF"/>
<path d="M468.81 67.8532C468.81 68.1831 447.868 68.4448 422.023 68.4448C396.177 68.4448 375.235 68.1831 375.235 67.8532C375.235 67.5234 396.177 67.2617 422.023 67.2617C447.868 67.2617 468.81 67.5234 468.81 67.8532Z" fill="#5468FF"/>
<path d="M354.361 127.678C360.85 127.678 366.112 127.413 366.112 127.086C366.112 126.759 360.85 126.495 354.361 126.495C347.871 126.495 342.61 126.759 342.61 127.086C342.61 127.413 347.871 127.678 354.361 127.678Z" fill="#5468FF"/>
<path d="M419.258 127.678C445.098 127.678 466.046 127.413 466.046 127.086C466.046 126.759 445.098 126.495 419.258 126.495C393.418 126.495 372.47 126.759 372.47 127.086C372.47 127.413 393.418 127.678 419.258 127.678Z" fill="#5468FF"/>
<path d="M434.172 154.387C434.172 154.717 413.229 154.979 387.384 154.979C361.539 154.979 340.596 154.717 340.596 154.387C340.596 154.058 361.539 153.796 387.384 153.796C413.229 153.796 434.172 154.114 434.172 154.387Z" fill="#5468FF"/>
<path d="M362.699 85.1669C371.828 85.1669 379.228 84.9021 379.228 84.5754C379.228 84.2487 371.828 83.9839 362.699 83.9839C353.57 83.9839 346.17 84.2487 346.17 84.5754C346.17 84.9021 353.57 85.1669 362.699 85.1669Z" fill="#5468FF"/>
<path d="M361.869 109.681C370.997 109.681 378.397 109.416 378.397 109.09C378.397 108.763 370.997 108.498 361.869 108.498C352.74 108.498 345.34 108.763 345.34 109.09C345.34 109.416 352.74 109.681 361.869 109.681Z" fill="#5468FF"/>
<path d="M389.807 144.729C398.936 144.729 406.336 144.465 406.336 144.138C406.336 143.811 398.936 143.546 389.807 143.546C380.679 143.546 373.279 143.811 373.279 144.138C373.279 144.465 380.679 144.729 389.807 144.729Z" fill="#5468FF"/>
<path d="M457.242 85.1669C480.556 85.1669 499.456 84.9021 499.456 84.5754C499.456 84.2487 480.556 83.9839 457.242 83.9839C433.927 83.9839 415.027 84.2487 415.027 84.5754C415.027 84.9021 433.927 85.1669 457.242 85.1669Z" fill="#5468FF"/>
<path d="M431.18 111.103C454.494 111.103 473.395 110.839 473.395 110.512C473.395 110.185 454.494 109.92 431.18 109.92C407.865 109.92 388.965 110.185 388.965 110.512C388.965 110.839 407.865 111.103 431.18 111.103Z" fill="#5468FF"/>
<path d="M460.233 144.729C483.548 144.729 502.448 144.465 502.448 144.138C502.448 143.811 483.548 143.546 460.233 143.546C436.918 143.546 418.018 143.811 418.018 144.138C418.018 144.465 436.918 144.729 460.233 144.729Z" fill="#5468FF"/>
<path d="M383.152 169.073C406.467 169.073 425.367 168.808 425.367 168.482C425.367 168.155 406.467 167.89 383.152 167.89C359.838 167.89 340.938 168.155 340.938 168.482C340.938 168.808 359.838 169.073 383.152 169.073Z" fill="#5468FF"/>
<path d="M476.512 169.073C499.826 169.073 518.726 168.808 518.726 168.482C518.726 168.155 499.826 167.89 476.512 167.89C453.197 167.89 434.297 168.155 434.297 168.482C434.297 168.808 453.197 169.073 476.512 169.073Z" fill="#5468FF"/>
<path d="M383.141 178.845C406.455 178.845 425.356 178.58 425.356 178.253C425.356 177.926 406.455 177.662 383.141 177.662C359.826 177.662 340.926 177.926 340.926 178.253C340.926 178.58 359.826 178.845 383.141 178.845Z" fill="#5468FF"/>
<path d="M387.248 92.2085C410.562 92.2085 429.462 91.9436 429.462 91.6169C429.462 91.2902 410.562 91.0254 387.248 91.0254C363.933 91.0254 345.033 91.2902 345.033 91.6169C345.033 91.9436 363.933 92.2085 387.248 92.2085Z" fill="#5468FF"/>
<path d="M396.075 85.2578C402.081 85.2578 406.95 84.9929 406.95 84.6662C406.95 84.3395 402.081 84.0747 396.075 84.0747C390.069 84.0747 385.2 84.3395 385.2 84.6662C385.2 84.9929 390.069 85.2578 396.075 85.2578Z" fill="#5468FF"/>
<path d="M352.472 135.731C358.479 135.731 363.348 135.467 363.348 135.14C363.348 134.813 358.479 134.548 352.472 134.548C346.466 134.548 341.597 134.813 341.597 135.14C341.597 135.467 346.466 135.731 352.472 135.731Z" fill="#5468FF"/>
<path d="M351.961 144.729C357.967 144.729 362.836 144.465 362.836 144.138C362.836 143.811 357.967 143.546 351.961 143.546C345.954 143.546 341.086 143.811 341.086 144.138C341.086 144.465 345.954 144.729 351.961 144.729Z" fill="#5468FF"/>
<path d="M528.487 56.5002C528.487 56.8301 498.614 57.0918 433.717 57.0918C368.819 57.0918 327.617 56.8301 327.617 56.5002C327.617 56.1703 368.853 55.9087 433.774 55.9087C498.694 55.9087 528.487 56.1703 528.487 56.5002Z" fill="#5468FF"/>
<path d="M704.752 258.246L718.186 159.279C718.369 158.594 718.393 157.876 718.254 157.18C718.115 156.485 717.818 155.831 717.386 155.269C716.953 154.707 716.397 154.252 715.761 153.939C715.124 153.626 714.425 153.464 713.715 153.466H601.097C600.071 153.464 599.073 153.804 598.261 154.432C597.45 155.061 596.871 155.941 596.615 156.935L583.681 258.178L704.752 258.246Z" fill="#5468FF"/>
<path d="M596.535 156.924L584.022 250.534H521.434V258.258H706.424L718.3 159.29C718.473 158.608 718.488 157.895 718.344 157.206C718.2 156.517 717.9 155.871 717.467 155.315C717.035 154.76 716.481 154.311 715.849 154.002C715.216 153.693 714.521 153.533 713.818 153.534H600.995C599.983 153.533 598.998 153.864 598.192 154.476C597.387 155.088 596.805 155.949 596.535 156.924Z" fill="#5468FF"/>
<path opacity="0.2" d="M596.535 156.924L584.022 250.534H521.434V258.258H706.424L718.3 159.29C718.473 158.608 718.488 157.895 718.344 157.206C718.2 156.517 717.9 155.871 717.467 155.315C717.035 154.76 716.481 154.311 715.849 154.002C715.216 153.693 714.521 153.533 713.818 153.534H600.995C599.983 153.533 598.998 153.864 598.192 154.476C597.387 155.088 596.805 155.949 596.535 156.924Z" fill="#000D44"/>
<path d="M702.544 250.807H589.79L600.71 157.687H714.045L702.544 250.807Z" fill="white"/>
<path opacity="0.1" d="M702.544 250.807H589.79L600.71 157.687H714.045L702.544 250.807Z" fill="#5468FF"/>
<path d="M603.831 195.402C605.465 179.56 606.663 166.704 606.507 166.688C606.351 166.672 604.899 179.502 603.265 195.344C601.631 211.186 600.432 224.042 600.589 224.058C600.745 224.074 602.196 211.244 603.831 195.402Z" fill="#5468FF"/>
<path d="M616.443 169.847C619.766 169.847 622.46 169.72 622.46 169.563C622.46 169.406 619.766 169.278 616.443 169.278C613.119 169.278 610.425 169.406 610.425 169.563C610.425 169.72 613.119 169.847 616.443 169.847Z" fill="#5468FF"/>
<path d="M649.716 169.847C662.966 169.847 673.707 169.72 673.707 169.563C673.707 169.406 662.966 169.278 649.716 169.278C636.466 169.278 625.725 169.406 625.725 169.563C625.725 169.72 636.466 169.847 649.716 169.847Z" fill="#5468FF"/>
<path d="M615.021 200.22C618.344 200.22 621.038 200.092 621.038 199.935C621.038 199.778 618.344 199.651 615.021 199.651C611.697 199.651 609.003 199.778 609.003 199.935C609.003 200.092 611.697 200.22 615.021 200.22Z" fill="#5468FF"/>
<path d="M648.294 200.22C661.544 200.22 672.285 200.092 672.285 199.935C672.285 199.778 661.544 199.651 648.294 199.651C635.044 199.651 624.303 199.778 624.303 199.935C624.303 200.092 635.044 200.22 648.294 200.22Z" fill="#5468FF"/>
<path d="M631.947 214.212C645.197 214.212 655.938 214.085 655.938 213.927C655.938 213.77 645.197 213.643 631.947 213.643C618.698 213.643 607.956 213.77 607.956 213.927C607.956 214.085 618.698 214.212 631.947 214.212Z" fill="#5468FF"/>
<path d="M619.298 178.424C623.978 178.424 627.773 178.297 627.773 178.14C627.773 177.983 623.978 177.855 619.298 177.855C614.617 177.855 610.823 177.983 610.823 178.14C610.823 178.297 614.617 178.424 619.298 178.424Z" fill="#5468FF"/>
<path d="M618.866 190.994C623.546 190.994 627.341 190.867 627.341 190.71C627.341 190.553 623.546 190.425 618.866 190.425C614.185 190.425 610.391 190.553 610.391 190.71C610.391 190.867 614.185 190.994 618.866 190.994Z" fill="#5468FF"/>
<path d="M633.187 208.956C637.868 208.956 641.662 208.829 641.662 208.672C641.662 208.515 637.868 208.387 633.187 208.387C628.507 208.387 624.712 208.515 624.712 208.672C624.712 208.829 628.507 208.956 633.187 208.956Z" fill="#5468FF"/>
<path d="M667.769 178.424C679.725 178.424 689.417 178.297 689.417 178.14C689.417 177.983 679.725 177.855 667.769 177.855C655.813 177.855 646.121 177.983 646.121 178.14C646.121 178.297 655.813 178.424 667.769 178.424Z" fill="#5468FF"/>
<path d="M654.403 191.722C666.359 191.722 676.051 191.595 676.051 191.438C676.051 191.281 666.359 191.153 654.403 191.153C642.447 191.153 632.755 191.281 632.755 191.438C632.755 191.595 642.447 191.722 654.403 191.722Z" fill="#5468FF"/>
<path d="M669.305 208.956C681.261 208.956 690.953 208.829 690.953 208.672C690.953 208.515 681.261 208.387 669.305 208.387C657.349 208.387 647.657 208.515 647.657 208.672C647.657 208.829 657.349 208.956 669.305 208.956Z" fill="#5468FF"/>
<path d="M629.775 224.347C641.731 224.347 651.423 224.22 651.423 224.063C651.423 223.906 641.731 223.778 629.775 223.778C617.819 223.778 608.127 223.906 608.127 224.063C608.127 224.22 617.819 224.347 629.775 224.347Z" fill="#5468FF"/>
<path d="M677.643 224.347C689.599 224.347 699.291 224.22 699.291 224.063C699.291 223.906 689.599 223.778 677.643 223.778C665.688 223.778 655.996 223.906 655.996 224.063C655.996 224.22 665.688 224.347 677.643 224.347Z" fill="#5468FF"/>
<path d="M677.643 234.585C689.599 234.585 699.291 234.458 699.291 234.301C699.291 234.144 689.599 234.017 677.643 234.017C665.688 234.017 655.996 234.144 655.996 234.301C655.996 234.458 665.688 234.585 677.643 234.585Z" fill="#5468FF"/>
<path d="M632.141 237.998C644.097 237.998 653.789 237.871 653.789 237.714C653.789 237.557 644.097 237.429 632.141 237.429C620.185 237.429 610.493 237.557 610.493 237.714C610.493 237.871 620.185 237.998 632.141 237.998Z" fill="#5468FF"/>
<path d="M677.643 241.411C689.599 241.411 699.291 241.283 699.291 241.126C699.291 240.969 689.599 240.842 677.643 240.842C665.688 240.842 655.996 240.969 655.996 241.126C655.996 241.283 665.688 241.411 677.643 241.411Z" fill="#5468FF"/>
<path d="M629.775 229.364C641.731 229.364 651.423 229.236 651.423 229.079C651.423 228.922 641.731 228.795 629.775 228.795C617.819 228.795 608.127 228.922 608.127 229.079C608.127 229.236 617.819 229.364 629.775 229.364Z" fill="#5468FF"/>
<path d="M631.879 182.03C643.835 182.03 653.527 181.903 653.527 181.746C653.527 181.589 643.835 181.461 631.879 181.461C619.923 181.461 610.231 181.589 610.231 181.746C610.231 181.903 619.923 182.03 631.879 182.03Z" fill="#5468FF"/>
<path d="M636.407 178.47C639.485 178.47 641.981 178.342 641.981 178.185C641.981 178.028 639.485 177.901 636.407 177.901C633.328 177.901 630.833 178.028 630.833 178.185C630.833 178.342 633.328 178.47 636.407 178.47Z" fill="#5468FF"/>
<path d="M614.043 204.337C617.121 204.337 619.617 204.21 619.617 204.053C619.617 203.896 617.121 203.769 614.043 203.769C610.964 203.769 608.469 203.896 608.469 204.053C608.469 204.21 610.964 204.337 614.043 204.337Z" fill="#5468FF"/>
<path d="M613.781 208.956C616.859 208.956 619.355 208.829 619.355 208.672C619.355 208.515 616.859 208.387 613.781 208.387C610.702 208.387 608.207 208.515 608.207 208.672C608.207 208.829 610.702 208.956 613.781 208.956Z" fill="#5468FF"/>
<path d="M709.836 162.077C709.836 162.237 700.36 162.282 667.087 162.282C633.813 162.282 606.796 162.157 606.796 161.998C606.796 161.839 633.768 161.713 667.087 161.713C700.406 161.713 709.836 161.918 709.836 162.077Z" fill="#5468FF"/>
<path d="M736 595.487H0V608H736V595.487Z" fill="white"/>
<path opacity="0.2" d="M736 595.487H0V608H736V595.487Z" fill="#5468FF"/>
</svg>
