<svg width="173" height="43" viewBox="0 0 173 43" fill="none" xmlns="http://www.w3.org/2000/svg">
<path d="M63.375 37.6L41.775 1.6C41.275 0.5 40.175 0 38.875 0C37.775 0 36.775 0.5 35.975 1.6L26.675 17.9L22.175 10.7C21.675 9.6 20.575 9.1 19.275 9.1C18.175 9.1 17.175 9.6 16.375 10.7L0.375 37.6C-0.125 38.7 -0.125 40 0.375 41.1C1.175 42.2 2.275 42.7 3.575 42.7H60.675C61.975 42.7 63.075 42.2 63.575 41.1C63.875 40 63.875 38.6 63.375 37.6V37.6ZM6.575 37.3L19.075 16.2L23.575 23.7C24.075 24.8 25.175 25.3 26.475 25.3C27.575 25.3 28.875 24.8 29.375 23.7L38.975 7.4L56.975 37.3H6.575Z" fill="#2F80ED"/>
<path d="M79.339 14.558L76.693 9.60901H76.497L76.987 14.558V37H73.165V2.16101H75.321L91.736 25.044L94.284 29.748H94.529L93.99 25.044V2.70001H97.812V37.539H95.656L79.339 14.558Z" fill="#2F80ED"/>
<path d="M104.371 24.75C104.371 20.6013 105.285 17.4327 107.115 15.244C108.977 13.0227 111.639 11.912 115.102 11.912C116.931 11.912 118.515 12.2223 119.855 12.843C121.227 13.431 122.354 14.2967 123.236 15.44C124.118 16.5507 124.771 17.9063 125.196 19.507C125.62 21.075 125.833 22.8227 125.833 24.75C125.833 28.8987 124.902 32.0837 123.04 34.305C121.21 36.4937 118.564 37.588 115.102 37.588C113.272 37.588 111.672 37.294 110.3 36.706C108.96 36.0853 107.85 35.2197 106.968 34.109C106.086 32.9657 105.432 31.61 105.008 30.042C104.583 28.4413 104.371 26.6773 104.371 24.75ZM108.438 24.75C108.438 25.9913 108.552 27.1837 108.781 28.327C109.042 29.4703 109.434 30.4667 109.957 31.316C110.479 32.1653 111.165 32.8513 112.015 33.374C112.864 33.8967 113.893 34.158 115.102 34.158C119.544 34.1907 121.766 31.0547 121.766 24.75C121.766 23.476 121.635 22.2673 121.374 21.124C121.145 19.9807 120.769 18.9843 120.247 18.135C119.724 17.2857 119.038 16.616 118.189 16.126C117.339 15.6033 116.31 15.342 115.102 15.342C110.659 15.3093 108.438 18.4453 108.438 24.75Z" fill="#2F80ED"/>
<path d="M138.495 26.857L139.867 31.512H139.916L141.141 26.759L146.629 12.5H150.843L140.406 37.539H138.74L128.107 12.5H132.615L138.495 26.857Z" fill="#2F80ED"/>
<path d="M154.686 14.313C155.927 13.5617 157.364 13.0063 158.998 12.647C160.664 12.2877 162.395 12.108 164.192 12.108C165.89 12.108 167.246 12.3367 168.259 12.794C169.304 13.2513 170.088 13.8557 170.611 14.607C171.166 15.3257 171.525 16.126 171.689 17.008C171.885 17.89 171.983 18.772 171.983 19.654C171.983 21.614 171.934 23.525 171.836 25.387C171.738 27.249 171.689 29.013 171.689 30.679C171.689 31.8877 171.738 33.031 171.836 34.109C171.934 35.187 172.113 36.1833 172.375 37.098H169.484L168.455 33.668H168.21C167.916 34.1253 167.54 34.5827 167.083 35.04C166.658 35.4647 166.135 35.8567 165.515 36.216C164.894 36.5427 164.175 36.8203 163.359 37.049C162.542 37.2777 161.611 37.392 160.566 37.392C159.52 37.392 158.54 37.2287 157.626 36.902C156.744 36.5753 155.976 36.118 155.323 35.53C154.669 34.9093 154.147 34.1743 153.755 33.325C153.395 32.4757 153.216 31.512 153.216 30.434C153.216 28.9967 153.51 27.8043 154.098 26.857C154.686 25.877 155.502 25.1093 156.548 24.554C157.626 23.966 158.9 23.5577 160.37 23.329C161.872 23.0677 163.522 22.937 165.319 22.937C165.776 22.937 166.217 22.937 166.642 22.937C167.099 22.937 167.556 22.9697 168.014 23.035C168.112 22.055 168.161 21.173 168.161 20.389C168.161 18.5923 167.801 17.3347 167.083 16.616C166.364 15.8973 165.057 15.538 163.163 15.538C162.607 15.538 162.003 15.587 161.35 15.685C160.729 15.7503 160.076 15.8647 159.39 16.028C158.736 16.1587 158.099 16.3383 157.479 16.567C156.891 16.763 156.368 16.9917 155.911 17.253L154.686 14.313ZM161.644 33.962C162.558 33.962 163.375 33.8477 164.094 33.619C164.812 33.3577 165.433 33.0473 165.956 32.688C166.478 32.296 166.903 31.8713 167.23 31.414C167.589 30.9567 167.85 30.5157 168.014 30.091V26.024C167.556 25.9913 167.083 25.975 166.593 25.975C166.135 25.9423 165.678 25.926 165.221 25.926C164.208 25.926 163.212 25.9913 162.232 26.122C161.284 26.22 160.435 26.4323 159.684 26.759C158.965 27.053 158.377 27.4777 157.92 28.033C157.495 28.5557 157.283 29.2253 157.283 30.042C157.283 31.1853 157.691 32.1327 158.508 32.884C159.324 33.6027 160.37 33.962 161.644 33.962Z" fill="#2F80ED"/>
</svg>
