<svg width="630" height="559" viewBox="0 0 630 559" fill="none" xmlns="http://www.w3.org/2000/svg">
<path d="M630 273.5C630 424.55 507.725 547 356.892 547C206.058 547 402.867 424.55 402.867 273.5C402.867 122.45 206.058 0 356.892 0C507.725 0 630 122.45 630 273.5Z" fill="#F6FAFF"/>
<path d="M266.813 478.874C122.217 435.087 40.4955 282.373 84.282 137.778C128.069 -6.81788 188.154 217.347 332.749 261.134C477.345 304.92 651.696 151.747 607.909 296.343C564.123 440.939 411.409 522.661 266.813 478.874Z" fill="#EBF4FF"/>
<path d="M90.7228 471.057C140.828 471.057 181.446 468.328 181.446 464.96C181.446 461.593 140.828 458.863 90.7228 458.863C40.618 458.863 0 461.593 0 464.96C0 468.328 40.618 471.057 90.7228 471.057Z" fill="white"/>
<path opacity="0.2" d="M90.7228 471.057C140.828 471.057 181.446 468.328 181.446 464.96C181.446 461.593 140.828 458.863 90.7228 458.863C40.618 458.863 0 461.593 0 464.96C0 468.328 40.618 471.057 90.7228 471.057Z" fill="#5468FF"/>
<path d="M113.969 158.377C121.397 151.451 132.976 151.532 140.95 157.824C154.033 168.141 178.418 187.237 186.295 192.521C197.238 199.838 245.911 227.682 245.911 227.682L240.598 239.25C240.598 239.25 179.745 217.788 171.087 211.829C162.43 205.87 112.724 180.205 110.063 168.742C109.103 164.702 110.958 161.19 113.969 158.377Z" fill="#5468FF"/>
<path d="M230.607 223.918C231.599 224.113 235.822 225.6 236.188 223.812C236.62 221.698 232.234 220.674 230.924 220.837C229.044 221.072 227.157 220.585 224.781 221.194C222.909 221.674 221.144 222.145 219.256 222.601C218.223 222.845 217.417 223.666 216.425 224.072C215.611 224.397 214.049 225.43 212.714 225.422C212.223 225.382 211.736 225.3 211.258 225.178C211.185 225.405 211.185 225.641 211.103 225.861C210.107 228.467 208.971 231.018 207.702 233.502C209.274 233.666 210.858 233.666 212.43 233.502C213.404 233.369 214.397 233.513 215.294 233.917C216.172 234.226 217.059 234.559 217.946 234.876C218.648 235.204 219.374 235.476 220.119 235.689C220.794 235.819 222.023 235.787 222.153 234.941C222.15 234.533 222.056 234.13 221.879 233.762C221.701 233.394 221.445 233.069 221.128 232.811C220.184 231.999 216.986 232.202 217.588 230.373C217.983 229.557 218.536 228.827 219.215 228.226C219.843 227.599 220.641 227.17 221.51 226.991C223.254 226.399 225.116 226.234 226.937 226.511C228.084 226.698 229.126 226.877 230.192 226.21C231.005 225.698 231.363 225.145 230.314 224.446C229.953 224.203 229.568 223.996 229.166 223.828C229.648 223.807 230.131 223.837 230.607 223.918V223.918Z" fill="white"/>
<path d="M330.287 349.187C469.889 349.187 583.058 340.469 583.058 329.716C583.058 318.963 469.889 310.246 330.287 310.246C190.686 310.246 77.5166 318.963 77.5166 329.716C77.5166 340.469 190.686 349.187 330.287 349.187Z" fill="white"/>
<path opacity="0.1" d="M330.287 349.187C469.889 349.187 583.058 340.469 583.058 329.716C583.058 318.963 469.889 310.246 330.287 310.246C190.686 310.246 77.5166 318.963 77.5166 329.716C77.5166 340.469 190.686 349.187 330.287 349.187Z" fill="#5468FF"/>
<path d="M458.089 71.4147L443.76 67.1873C443.236 67.0238 442.684 66.9665 442.137 67.0187C441.59 67.0709 441.059 67.2314 440.575 67.4911C440.091 67.7507 439.663 68.1042 439.318 68.5308C438.972 68.9574 438.715 69.4486 438.561 69.9757L436.722 76.1949C431.158 75.8679 425.578 76.4584 420.205 77.9427L417.105 72.252C416.576 71.2947 415.689 70.586 414.638 70.2812C413.587 69.9764 412.458 70.1004 411.499 70.6261L398.375 77.7639C397.417 78.2921 396.707 79.1784 396.402 80.2284C396.097 81.2784 396.221 82.4065 396.747 83.3652L399.847 89.0559C395.687 92.7445 392.163 97.0923 389.416 101.925L383.232 100.088C382.182 99.7776 381.05 99.8971 380.088 100.42C379.125 100.943 378.409 101.826 378.098 102.876L373.867 117.192C373.714 117.712 373.664 118.256 373.721 118.795C373.778 119.333 373.941 119.855 374.2 120.331C374.46 120.807 374.81 121.227 375.232 121.567C375.653 121.907 376.138 122.161 376.658 122.314L382.883 124.151C382.555 129.711 383.146 135.287 384.632 140.654L378.936 143.752C377.978 144.28 377.269 145.166 376.964 146.216C376.659 147.266 376.783 148.394 377.309 149.353L384.445 162.466C384.974 163.423 385.861 164.132 386.911 164.437C387.962 164.742 389.091 164.618 390.051 164.092L395.747 160.995C399.446 165.158 403.809 168.682 408.659 171.425L406.82 177.644C406.51 178.694 406.63 179.824 407.153 180.786C407.676 181.748 408.561 182.463 409.611 182.774L423.94 187.001C424.46 187.155 425.005 187.204 425.544 187.147C426.083 187.09 426.605 186.927 427.081 186.668C427.557 186.41 427.978 186.059 428.318 185.638C428.659 185.217 428.913 184.732 429.066 184.213L430.905 177.994C436.466 178.321 442.044 177.731 447.414 176.246L450.514 181.937C451.043 182.894 451.93 183.603 452.98 183.907C454.031 184.212 455.16 184.088 456.12 183.562L469.244 176.425C470.202 175.896 470.912 175.01 471.217 173.96C471.522 172.91 471.398 171.782 470.872 170.823L467.772 165.133C471.938 161.435 475.465 157.076 478.211 152.231L484.435 154.068C485.486 154.378 486.617 154.259 487.58 153.736C488.543 153.213 489.258 152.33 489.569 151.28L493.8 136.964C494.111 135.914 493.991 134.783 493.468 133.821C492.945 132.86 492.06 132.145 491.01 131.834L484.785 129.997C485.113 124.44 484.522 118.867 483.036 113.502L488.731 110.404C489.689 109.876 490.399 108.99 490.704 107.94C491.009 106.89 490.885 105.762 490.359 104.803L483.223 91.6899C482.694 90.7326 481.807 90.0239 480.756 89.7191C479.705 89.4143 478.576 89.5383 477.617 90.064L471.921 93.1613C468.221 88.998 463.858 85.4738 459.008 82.7311L460.847 76.5119C461.149 75.4706 461.029 74.3525 460.513 73.3988C459.997 72.4452 459.126 71.7325 458.089 71.4147ZM439.717 107.095C443.677 108.265 447.201 110.581 449.843 113.751C452.486 116.921 454.129 120.803 454.563 124.906C454.998 129.009 454.205 133.148 452.285 136.801C450.365 140.453 447.404 143.455 443.776 145.426C440.149 147.398 436.018 148.25 431.906 147.876C427.794 147.501 423.885 145.917 420.674 143.323C417.463 140.729 415.094 137.242 413.866 133.303C412.638 129.363 412.608 125.149 413.777 121.192C414.554 118.565 415.841 116.116 417.565 113.986C419.289 111.855 421.416 110.085 423.825 108.776C426.233 107.467 428.877 106.645 431.603 106.356C434.33 106.068 437.087 106.319 439.717 107.095V107.095Z" fill="#5468FF"/>
<path d="M442.345 98.2016C436.623 96.5101 430.527 96.5529 424.828 98.3243C419.13 100.096 414.086 103.516 410.334 108.153C406.582 112.79 404.291 118.435 403.751 124.373C403.211 130.311 404.446 136.276 407.3 141.513C410.154 146.749 414.499 151.022 419.784 153.791C425.07 156.559 431.059 157.699 436.993 157.066C442.927 156.433 448.539 154.055 453.12 150.233C457.701 146.412 461.045 141.318 462.728 135.598C464.983 127.938 464.103 119.698 460.281 112.686C456.46 105.674 450.009 100.464 442.345 98.2016ZM439.717 107.095C443.677 108.264 447.202 110.58 449.844 113.751C452.487 116.921 454.129 120.803 454.564 124.906C454.998 129.008 454.206 133.148 452.286 136.801C450.366 140.453 447.405 143.455 443.777 145.426C440.15 147.397 436.019 148.25 431.907 147.875C427.794 147.501 423.886 145.917 420.675 143.323C417.463 140.729 415.094 137.242 413.867 133.303C412.639 129.363 412.608 125.149 413.778 121.192C414.555 118.565 415.842 116.116 417.566 113.985C419.29 111.855 421.417 110.085 423.825 108.776C426.234 107.467 428.877 106.645 431.604 106.356C434.331 106.068 437.088 106.319 439.717 107.095V107.095Z" fill="white"/>
<path d="M339.344 74.333L330.939 71.8942C330.324 71.7167 329.664 71.7876 329.101 72.0917C328.538 72.3958 328.117 72.9088 327.929 73.5201L326.855 77.1703C323.587 76.9776 320.311 77.3237 317.156 78.1946L315.333 74.8533C315.024 74.3001 314.511 73.8889 313.904 73.7069C313.296 73.5248 312.642 73.5861 312.079 73.8778L304.308 78.0564C303.756 78.3668 303.346 78.8797 303.165 79.4865C302.985 80.0934 303.047 80.7467 303.34 81.3082L305.163 84.6495C302.717 86.8213 300.647 89.3812 299.036 92.2263L295.382 91.145C294.767 90.9675 294.107 91.0385 293.544 91.3426C292.981 91.6467 292.56 92.1597 292.372 92.771L289.906 101.226C289.729 101.84 289.8 102.5 290.104 103.062C290.409 103.625 290.922 104.046 291.534 104.234L295.187 105.315C295.002 108.572 295.354 111.838 296.229 114.981L292.917 116.818C292.365 117.129 291.955 117.642 291.774 118.248C291.594 118.855 291.656 119.509 291.949 120.07L296.139 127.769C296.45 128.321 296.963 128.73 297.57 128.911C298.178 129.091 298.832 129.029 299.394 128.736L302.738 126.915C304.911 129.359 307.473 131.428 310.321 133.037L309.239 136.687C309.061 137.301 309.132 137.961 309.437 138.524C309.741 139.086 310.254 139.507 310.866 139.695L319.279 142.175C319.894 142.352 320.555 142.281 321.118 141.977C321.681 141.673 322.102 141.16 322.29 140.549L323.372 136.898C326.637 137.091 329.911 136.745 333.063 135.874L334.885 139.215C335.196 139.767 335.709 140.177 336.317 140.357C336.924 140.538 337.578 140.475 338.14 140.183L345.845 135.996C346.398 135.686 346.807 135.173 346.988 134.566C347.169 133.959 347.106 133.306 346.814 132.744L344.991 129.403C347.436 127.231 349.506 124.671 351.118 121.826L354.771 122.907C355.387 123.087 356.049 123.018 356.614 122.713C357.179 122.409 357.602 121.895 357.79 121.281L360.272 112.875C360.449 112.261 360.378 111.601 360.074 111.039C359.769 110.476 359.256 110.056 358.644 109.868L354.991 108.786C355.184 105.524 354.837 102.253 353.966 99.1039L357.31 97.2829C357.862 96.9725 358.272 96.4596 358.453 95.8528C358.633 95.2459 358.571 94.5926 358.278 94.0311L354.088 86.3323C353.777 85.7805 353.264 85.3711 352.656 85.1905C352.049 85.01 351.395 85.0725 350.833 85.3649L347.489 87.1859C345.316 84.7422 342.754 82.6738 339.906 81.0643L340.988 77.4142C341.087 77.1041 341.122 76.7775 341.093 76.4535C341.063 76.1295 340.969 75.8146 340.816 75.5275C340.663 75.2404 340.454 74.9868 340.201 74.7817C339.948 74.5765 339.657 74.424 339.344 74.333V74.333ZM328.58 95.2993C330.906 95.9828 332.978 97.3402 334.532 99.1999C336.087 101.06 337.054 103.338 337.313 105.747C337.571 108.156 337.109 110.588 335.984 112.735C334.859 114.881 333.123 116.647 330.994 117.807C328.866 118.968 326.44 119.472 324.025 119.255C321.609 119.039 319.313 118.112 317.425 116.591C315.537 115.07 314.143 113.024 313.418 110.712C312.694 108.399 312.672 105.924 313.356 103.6C313.81 102.056 314.564 100.616 315.575 99.3637C316.585 98.111 317.833 97.0695 319.247 96.2988C320.661 95.528 322.213 95.043 323.814 94.8715C325.415 94.7 327.035 94.8454 328.58 95.2993Z" fill="#5468FF"/>
<path d="M330.125 90.072C326.766 89.0799 323.187 89.1057 319.843 90.1463C316.498 91.1869 313.538 93.1954 311.336 95.9176C309.134 98.6399 307.79 101.954 307.474 105.439C307.157 108.925 307.883 112.426 309.559 115.5C311.235 118.573 313.786 121.081 316.889 122.705C319.991 124.33 323.507 124.998 326.99 124.626C330.473 124.254 333.768 122.857 336.456 120.614C339.145 118.37 341.107 115.38 342.094 112.022C343.416 107.525 342.898 102.689 340.654 98.5732C338.41 94.4579 334.623 91.4004 330.125 90.072V90.072ZM328.579 95.2912C330.906 95.9742 332.977 97.331 334.532 99.1902C336.087 101.049 337.055 103.327 337.314 105.736C337.573 108.145 337.112 110.577 335.988 112.723C334.864 114.87 333.129 116.636 331.001 117.797C328.872 118.959 326.448 119.464 324.032 119.248C321.617 119.033 319.32 118.107 317.432 116.587C315.543 115.068 314.148 113.023 313.422 110.711C312.697 108.399 312.674 105.925 313.356 103.6C313.81 102.056 314.564 100.616 315.574 99.3637C316.585 98.1111 317.833 97.0696 319.247 96.2988C320.66 95.528 322.212 95.043 323.813 94.8715C325.415 94.7 327.034 94.8454 328.579 95.2993V95.2912Z" fill="white"/>
<path opacity="0.2" d="M442.345 98.2016C436.623 96.5101 430.527 96.5529 424.828 98.3243C419.13 100.096 414.086 103.516 410.334 108.153C406.582 112.79 404.291 118.435 403.751 124.373C403.211 130.311 404.446 136.276 407.3 141.513C410.154 146.749 414.499 151.022 419.784 153.791C425.07 156.559 431.059 157.699 436.993 157.066C442.927 156.433 448.539 154.055 453.12 150.233C457.701 146.412 461.045 141.318 462.728 135.598C464.983 127.938 464.103 119.698 460.281 112.686C456.46 105.674 450.009 100.464 442.345 98.2016ZM439.717 107.095C443.677 108.264 447.202 110.58 449.844 113.751C452.487 116.921 454.129 120.803 454.564 124.906C454.998 129.008 454.206 133.148 452.286 136.801C450.366 140.453 447.405 143.455 443.777 145.426C440.15 147.397 436.019 148.25 431.907 147.875C427.794 147.501 423.886 145.917 420.675 143.323C417.463 140.729 415.094 137.242 413.867 133.303C412.639 129.363 412.608 125.149 413.778 121.192C414.555 118.565 415.842 116.116 417.566 113.985C419.29 111.855 421.417 110.085 423.825 108.776C426.234 107.467 428.877 106.645 431.604 106.356C434.331 106.068 437.088 106.319 439.717 107.095V107.095Z" fill="#5468FF"/>
<path opacity="0.2" d="M330.125 90.072C326.766 89.0799 323.187 89.1057 319.843 90.1463C316.498 91.1869 313.538 93.1954 311.336 95.9176C309.134 98.6399 307.79 101.954 307.474 105.439C307.157 108.925 307.883 112.426 309.559 115.5C311.235 118.573 313.786 121.081 316.889 122.705C319.991 124.33 323.507 124.998 326.99 124.626C330.473 124.254 333.768 122.857 336.456 120.614C339.145 118.37 341.107 115.38 342.094 112.022C343.416 107.525 342.898 102.689 340.654 98.5732C338.41 94.4579 334.623 91.4004 330.125 90.072V90.072ZM328.579 95.2912C330.906 95.9742 332.977 97.331 334.532 99.1902C336.087 101.049 337.055 103.327 337.314 105.736C337.573 108.145 337.112 110.577 335.988 112.723C334.864 114.87 333.129 116.636 331.001 117.797C328.872 118.959 326.448 119.464 324.032 119.248C321.617 119.033 319.32 118.107 317.432 116.587C315.543 115.068 314.148 113.023 313.422 110.711C312.697 108.399 312.674 105.925 313.356 103.6C313.81 102.056 314.564 100.616 315.574 99.3637C316.585 98.1111 317.833 97.0696 319.247 96.2988C320.66 95.528 322.212 95.043 323.813 94.8715C325.415 94.7 327.034 94.8454 328.579 95.2993V95.2912Z" fill="#5468FF"/>
<path d="M427.984 144.922V271.581H201.885V144.922C201.885 142.454 202.866 140.086 204.613 138.34C206.361 136.595 208.73 135.614 211.201 135.614H418.684C421.152 135.618 423.517 136.601 425.261 138.346C427.005 140.091 427.984 142.456 427.984 144.922V144.922Z" fill="#5468FF"/>
<path opacity="0.2" d="M427.984 144.922V271.581H201.885V144.922C201.885 142.454 202.866 140.086 204.613 138.34C206.361 136.595 208.73 135.614 211.201 135.614H418.684C421.152 135.618 423.517 136.601 425.261 138.346C427.005 140.091 427.984 142.456 427.984 144.922V144.922Z" fill="#000D44"/>
<path d="M418.082 146.256H211.787V271.59H418.082V146.256Z" fill="white"/>
<path opacity="0.2" d="M418.082 146.256H211.787V271.59H418.082V146.256Z" fill="#5468FF"/>
<path d="M344.502 316.465H285.357L291.85 294.694H338.676L344.502 316.465Z" fill="#5468FF"/>
<path opacity="0.2" d="M344.502 316.465H285.357L291.85 294.694H338.676L344.502 316.465Z" fill="#000D44"/>
<path d="M427.984 271.582V285.402C427.984 286.624 427.743 287.835 427.274 288.964C426.806 290.093 426.12 291.12 425.255 291.984C424.39 292.848 423.363 293.534 422.232 294.002C421.102 294.469 419.891 294.71 418.667 294.71H211.185C208.714 294.71 206.344 293.73 204.597 291.984C202.85 290.238 201.868 287.871 201.868 285.402V271.582H427.984Z" fill="#5468FF"/>
<path d="M291.851 294.694L289.743 301.742H340.564L338.677 294.694H291.851Z" fill="#5468FF"/>
<path d="M352.525 327.351H277.335C275.889 327.351 274.503 326.777 273.481 325.755C272.458 324.734 271.884 323.348 271.884 321.904C271.884 320.459 272.458 319.074 273.481 318.052C274.503 317.031 275.889 316.457 277.335 316.457H352.534C353.979 316.457 355.366 317.031 356.388 318.052C357.411 319.074 357.985 320.459 357.985 321.904V321.904C357.985 322.62 357.844 323.329 357.569 323.99C357.295 324.652 356.893 325.252 356.385 325.758C355.878 326.264 355.276 326.665 354.614 326.938C353.952 327.212 353.242 327.352 352.525 327.351V327.351Z" fill="#5468FF"/>
<path d="M356.122 235.299C354.55 233.744 352.574 232.658 350.418 232.164C348.261 231.67 346.01 231.787 343.917 232.502L294.202 183.074C294.9 180.97 294.994 178.712 294.474 176.557C293.953 174.401 292.839 172.435 291.257 170.88C288.604 168.27 285.878 168.246 281.338 167.888C281.112 167.867 280.885 167.916 280.688 168.029C280.491 168.142 280.334 168.314 280.238 168.52C280.143 168.726 280.114 168.956 280.155 169.179C280.196 169.403 280.305 169.608 280.468 169.766L285 174.229C285.102 174.331 285.183 174.452 285.238 174.586C285.293 174.719 285.322 174.862 285.322 175.006C285.322 175.15 285.293 175.293 285.238 175.426C285.183 175.559 285.102 175.68 285 175.782L279.304 181.562C279.202 181.664 279.081 181.745 278.948 181.801C278.814 181.856 278.671 181.884 278.527 181.884C278.383 181.884 278.24 181.856 278.106 181.801C277.973 181.745 277.852 181.664 277.75 181.562L272.502 176.392C272.34 176.232 272.132 176.126 271.907 176.089C271.682 176.052 271.451 176.086 271.247 176.186C271.042 176.286 270.873 176.447 270.765 176.647C270.656 176.847 270.612 177.076 270.639 177.302C271.111 181.823 271.664 184.904 274.569 187.773C276.166 189.342 278.174 190.429 280.362 190.908C282.55 191.386 284.829 191.238 286.936 190.481L336.569 239.852C335.826 241.973 335.699 244.261 336.205 246.451C336.71 248.641 337.827 250.643 339.425 252.225C342.338 255.095 345.422 255.607 349.954 256.013C350.182 256.039 350.411 255.992 350.611 255.881C350.811 255.769 350.971 255.598 351.069 255.391C351.167 255.184 351.197 254.952 351.156 254.727C351.115 254.501 351.005 254.295 350.841 254.135L345.593 248.965C345.491 248.863 345.41 248.742 345.354 248.609C345.299 248.476 345.271 248.333 345.271 248.189C345.271 248.044 345.299 247.902 345.354 247.768C345.41 247.635 345.491 247.514 345.593 247.412L351.288 241.632C351.39 241.53 351.512 241.449 351.645 241.394C351.778 241.339 351.921 241.31 352.065 241.31C352.21 241.31 352.353 241.339 352.486 241.394C352.619 241.449 352.74 241.53 352.842 241.632L357.375 246.095C357.536 246.254 357.742 246.359 357.965 246.396C358.188 246.433 358.417 246.4 358.621 246.302C358.825 246.205 358.993 246.046 359.104 245.849C359.214 245.652 359.261 245.426 359.238 245.201C358.823 240.616 358.774 237.884 356.122 235.299Z" fill="#5468FF"/>
<path d="M335.951 203.073C329.442 205.919 320.402 209.764 316.253 219.951L306.155 209.837C316.367 205.716 320.24 196.716 323.096 190.196C325.952 183.676 344.251 170.563 347.855 168.636C348.062 168.527 348.277 168.435 348.498 168.36C351.932 167.149 355.666 170.571 355.666 170.571C355.666 170.571 359.084 174.311 357.863 177.742C357.789 177.963 357.696 178.178 357.587 178.384C355.65 181.969 342.485 200.236 335.951 203.073Z" fill="#5468FF"/>
<path opacity="0.2" d="M335.951 203.073C329.442 205.919 320.402 209.764 316.253 219.951L306.155 209.837C316.367 205.716 320.24 196.716 323.096 190.196C325.952 183.676 344.251 170.563 347.855 168.636C348.062 168.527 348.277 168.435 348.498 168.36C351.932 167.149 355.666 170.571 355.666 170.571C355.666 170.571 359.084 174.311 357.863 177.742C357.789 177.963 357.696 178.178 357.587 178.384C355.65 181.969 342.485 200.236 335.951 203.073Z" fill="#000D44"/>
<path d="M357.863 177.75C356.917 177.336 355.874 177.192 354.851 177.336C353.828 177.479 352.865 177.904 352.07 178.563C349.222 180.855 347.472 178.742 347.472 178.742C347.472 178.742 345.365 176.994 347.66 174.148C348.319 173.354 348.744 172.392 348.888 171.369C349.031 170.347 348.888 169.305 348.473 168.36C351.907 167.149 355.642 170.571 355.642 170.571C355.642 170.571 359.083 174.327 357.863 177.75Z" fill="white"/>
<path d="M357.863 177.75C356.917 177.336 355.874 177.192 354.851 177.336C353.828 177.479 352.865 177.904 352.07 178.563C349.222 180.855 347.472 178.742 347.472 178.742C347.472 178.742 345.365 176.994 347.66 174.148C348.319 173.354 348.744 172.392 348.888 171.369C349.031 170.347 348.888 169.305 348.473 168.36C351.907 167.149 355.642 170.571 355.642 170.571C355.642 170.571 359.083 174.327 357.863 177.75Z" fill="#5468FF"/>
<path d="M316.252 219.959L310.679 224.552C310.152 224.988 309.481 225.211 308.797 225.178C308.114 225.145 307.467 224.858 306.985 224.373L301.704 219.081C301.22 218.598 300.934 217.951 300.902 217.268C300.871 216.585 301.096 215.915 301.533 215.39L306.147 209.837L316.252 219.959Z" fill="#5468FF"/>
<path d="M330.036 201.854C329.133 202.496 325.886 200.228 325.886 200.228C325.886 200.228 323.665 196.976 324.3 196.082C330.313 187.66 340.434 178.571 342.412 178.197C344.389 177.823 346.618 179.611 346.618 179.611C346.618 179.611 348.449 181.823 348.042 183.798C347.635 185.774 338.482 195.871 330.036 201.854Z" fill="white"/>
<path opacity="0.2" d="M330.036 201.854C329.133 202.496 325.886 200.228 325.886 200.228C325.886 200.228 323.665 196.976 324.3 196.082C330.313 187.66 340.434 178.571 342.412 178.197C344.389 177.823 346.618 179.611 346.618 179.611C346.618 179.611 348.449 181.823 348.042 183.798C347.635 185.774 338.482 195.871 330.036 201.854Z" fill="#5468FF"/>
<path d="M338.362 191.687C343.217 186.848 346.288 182.06 345.222 180.992C344.155 179.924 339.355 182.98 334.5 187.819C329.646 192.658 326.574 197.447 327.641 198.515C328.707 199.583 333.507 196.526 338.362 191.687Z" fill="white"/>
<path d="M338.362 191.687C343.217 186.848 346.288 182.06 345.222 180.992C344.155 179.924 339.355 182.98 334.5 187.819C329.646 192.658 326.574 197.447 327.641 198.515C328.707 199.583 333.507 196.526 338.362 191.687Z" fill="#5468FF"/>
<path d="M302.705 220.081L279.947 242.73L277.775 244.055L276.473 245.51L280.346 249.388L281.802 248.095L283.185 245.973L305.927 223.308L302.705 220.081Z" fill="#5468FF"/>
<path opacity="0.2" d="M302.705 220.081L279.947 242.73L277.775 244.055L276.473 245.51L280.346 249.388L281.802 248.095L283.185 245.973L305.927 223.308L302.705 220.081Z" fill="#000D44"/>
<path d="M276.497 252.639L273.259 249.396L276.473 245.51L280.346 249.388L276.497 252.639Z" fill="#5468FF"/>
<path d="M351.082 177.636C351.766 176.954 351.767 175.847 351.085 175.164C350.402 174.48 349.295 174.479 348.611 175.161C347.927 175.843 347.925 176.949 348.608 177.633C349.29 178.316 350.398 178.317 351.082 177.636Z" fill="white"/>
<path d="M512.49 260.103H398.757V342.098H512.49V260.103Z" fill="#5468FF"/>
<path opacity="0.3" d="M512.49 260.103H398.757V342.098H512.49V260.103Z" fill="#000D44"/>
<path d="M458.358 275.711H403.314V278.638H458.358V275.711Z" fill="white"/>
<path d="M455.388 274.216H406.275V280.142H455.388V274.216Z" fill="white"/>
<path d="M454.175 275.923H451.954V278.435H454.175V275.923Z" fill="#5468FF"/>
<path d="M446.763 275.923H444.542V278.435H446.763V275.923Z" fill="#5468FF"/>
<path d="M439.359 275.923H437.138V278.435H439.359V275.923Z" fill="#5468FF"/>
<path d="M431.947 275.923H429.726V278.435H431.947V275.923Z" fill="#5468FF"/>
<path d="M424.534 275.923H422.312V278.435H424.534V275.923Z" fill="#5468FF"/>
<path d="M417.122 275.923H414.9V278.435H417.122V275.923Z" fill="#5468FF"/>
<path d="M409.71 275.923H407.488V278.435H409.71V275.923Z" fill="#5468FF"/>
<path d="M458.358 266.492H403.314V269.419H458.358V266.492Z" fill="white"/>
<path d="M455.388 264.997H406.275V270.923H455.388V264.997Z" fill="white"/>
<path d="M454.175 266.704H451.954V269.216H454.175V266.704Z" fill="#5468FF"/>
<path d="M446.763 266.704H444.542V269.216H446.763V266.704Z" fill="#5468FF"/>
<path d="M439.359 266.704H437.138V269.216H439.359V266.704Z" fill="#5468FF"/>
<path d="M431.947 266.704H429.726V269.216H431.947V266.704Z" fill="#5468FF"/>
<path d="M424.534 266.704H422.312V269.216H424.534V266.704Z" fill="#5468FF"/>
<path d="M417.122 266.704H414.9V269.216H417.122V266.704Z" fill="#5468FF"/>
<path d="M409.71 266.704H407.488V269.216H409.71V266.704Z" fill="#5468FF"/>
<path d="M485.054 264.029H465.339V270.826H485.054V264.029Z" fill="white"/>
<path d="M468.439 266.273H466.641V268.565H468.439V266.273Z" fill="#5468FF"/>
<path d="M470.993 266.273H469.195V268.565H470.993V266.273Z" fill="#5468FF"/>
<path d="M473.548 266.273H471.75V268.565H473.548V266.273Z" fill="#5468FF"/>
<path d="M476.103 266.273H474.305V268.565H476.103V266.273Z" fill="#5468FF"/>
<path d="M478.659 266.273H476.86V268.565H478.659V266.273Z" fill="#5468FF"/>
<path d="M481.213 266.273H479.415V268.565H481.213V266.273Z" fill="#5468FF"/>
<path d="M483.76 266.273H481.962V268.565H483.76V266.273Z" fill="#5468FF"/>
<path d="M485.054 274.281H465.339V281.077H485.054V274.281Z" fill="white"/>
<path d="M468.439 276.524H466.641V278.817H468.439V276.524Z" fill="#5468FF"/>
<path d="M470.993 276.524H469.195V278.817H470.993V276.524Z" fill="#5468FF"/>
<path d="M473.548 276.524H471.75V278.817H473.548V276.524Z" fill="#5468FF"/>
<path d="M476.103 276.524H474.305V278.817H476.103V276.524Z" fill="#5468FF"/>
<path d="M478.659 276.524H476.86V278.817H478.659V276.524Z" fill="#5468FF"/>
<path d="M481.213 276.524H479.415V278.817H481.213V276.524Z" fill="#5468FF"/>
<path d="M483.76 276.524H481.962V278.817H483.76V276.524Z" fill="#5468FF"/>
<path d="M454.142 291.531H412.857V332.781H454.142V291.531Z" fill="white"/>
<path d="M419.579 297.149H418.114V298.613H419.579V297.149Z" fill="#5468FF"/>
<path d="M422.508 297.149H421.043V298.613H422.508V297.149Z" fill="#5468FF"/>
<path d="M425.437 297.149H423.973V298.613H425.437V297.149Z" fill="#5468FF"/>
<path d="M428.366 297.149H426.901V298.613H428.366V297.149Z" fill="#5468FF"/>
<path d="M431.303 297.149H429.839V298.613H431.303V297.149Z" fill="#5468FF"/>
<path d="M434.233 297.149H432.769V298.613H434.233V297.149Z" fill="#5468FF"/>
<path d="M437.162 297.149H435.697V298.613H437.162V297.149Z" fill="#5468FF"/>
<path d="M440.092 297.149H438.627V298.613H440.092V297.149Z" fill="#5468FF"/>
<path d="M443.02 297.149H441.556V298.613H443.02V297.149Z" fill="#5468FF"/>
<path d="M445.958 297.149H444.493V298.613H445.958V297.149Z" fill="#5468FF"/>
<path d="M448.886 297.149H447.422V298.613H448.886V297.149Z" fill="#5468FF"/>
<path d="M419.579 299.344H418.114V300.807H419.579V299.344Z" fill="#5468FF"/>
<path d="M422.508 299.344H421.043V300.807H422.508V299.344Z" fill="#5468FF"/>
<path d="M425.437 299.344H423.973V300.807H425.437V299.344Z" fill="#5468FF"/>
<path d="M428.366 299.344H426.901V300.807H428.366V299.344Z" fill="#5468FF"/>
<path d="M431.303 299.344H429.839V300.807H431.303V299.344Z" fill="#5468FF"/>
<path d="M434.233 299.344H432.769V300.807H434.233V299.344Z" fill="#5468FF"/>
<path d="M437.162 299.344H435.697V300.807H437.162V299.344Z" fill="#5468FF"/>
<path d="M440.092 299.344H438.627V300.807H440.092V299.344Z" fill="#5468FF"/>
<path d="M443.02 299.344H441.556V300.807H443.02V299.344Z" fill="#5468FF"/>
<path d="M445.958 299.344H444.493V300.807H445.958V299.344Z" fill="#5468FF"/>
<path d="M448.886 299.344H447.422V300.807H448.886V299.344Z" fill="#5468FF"/>
<path d="M419.579 301.539H418.114V303.002H419.579V301.539Z" fill="#5468FF"/>
<path d="M422.508 301.539H421.043V303.002H422.508V301.539Z" fill="#5468FF"/>
<path d="M425.437 301.539H423.973V303.002H425.437V301.539Z" fill="#5468FF"/>
<path d="M428.366 301.539H426.901V303.002H428.366V301.539Z" fill="#5468FF"/>
<path d="M431.303 301.539H429.839V303.002H431.303V301.539Z" fill="#5468FF"/>
<path d="M434.233 301.539H432.769V303.002H434.233V301.539Z" fill="#5468FF"/>
<path d="M437.162 301.539H435.697V303.002H437.162V301.539Z" fill="#5468FF"/>
<path d="M440.092 301.539H438.627V303.002H440.092V301.539Z" fill="#5468FF"/>
<path d="M443.02 301.539H441.556V303.002H443.02V301.539Z" fill="#5468FF"/>
<path d="M445.958 301.539H444.493V303.002H445.958V301.539Z" fill="#5468FF"/>
<path d="M448.886 301.539H447.422V303.002H448.886V301.539Z" fill="#5468FF"/>
<path d="M419.579 303.734H418.114V305.197H419.579V303.734Z" fill="#5468FF"/>
<path d="M422.508 303.734H421.043V305.197H422.508V303.734Z" fill="#5468FF"/>
<path d="M425.437 303.734H423.973V305.197H425.437V303.734Z" fill="#5468FF"/>
<path d="M428.366 303.734H426.901V305.197H428.366V303.734Z" fill="#5468FF"/>
<path d="M431.303 303.734H429.839V305.197H431.303V303.734Z" fill="#5468FF"/>
<path d="M434.233 303.734H432.769V305.197H434.233V303.734Z" fill="#5468FF"/>
<path d="M437.162 303.734H435.697V305.197H437.162V303.734Z" fill="#5468FF"/>
<path d="M440.092 303.734H438.627V305.197H440.092V303.734Z" fill="#5468FF"/>
<path d="M443.02 303.734H441.556V305.197H443.02V303.734Z" fill="#5468FF"/>
<path d="M445.958 303.734H444.493V305.197H445.958V303.734Z" fill="#5468FF"/>
<path d="M448.886 303.734H447.422V305.197H448.886V303.734Z" fill="#5468FF"/>
<path d="M419.579 305.929H418.114V307.392H419.579V305.929Z" fill="#5468FF"/>
<path d="M422.508 305.929H421.043V307.392H422.508V305.929Z" fill="#5468FF"/>
<path d="M425.437 305.929H423.973V307.392H425.437V305.929Z" fill="#5468FF"/>
<path d="M428.366 305.929H426.901V307.392H428.366V305.929Z" fill="#5468FF"/>
<path d="M431.303 305.929H429.839V307.392H431.303V305.929Z" fill="#5468FF"/>
<path d="M434.233 305.929H432.769V307.392H434.233V305.929Z" fill="#5468FF"/>
<path d="M437.162 305.929H435.697V307.392H437.162V305.929Z" fill="#5468FF"/>
<path d="M440.092 305.929H438.627V307.392H440.092V305.929Z" fill="#5468FF"/>
<path d="M443.02 305.929H441.556V307.392H443.02V305.929Z" fill="#5468FF"/>
<path d="M445.958 305.929H444.493V307.392H445.958V305.929Z" fill="#5468FF"/>
<path d="M448.886 305.929H447.422V307.392H448.886V305.929Z" fill="#5468FF"/>
<path d="M419.579 308.124H418.114V309.587H419.579V308.124Z" fill="#5468FF"/>
<path d="M422.508 308.124H421.043V309.587H422.508V308.124Z" fill="#5468FF"/>
<path d="M425.437 308.124H423.973V309.587H425.437V308.124Z" fill="#5468FF"/>
<path d="M428.366 308.124H426.901V309.587H428.366V308.124Z" fill="#5468FF"/>
<path d="M431.303 308.124H429.839V309.587H431.303V308.124Z" fill="#5468FF"/>
<path d="M434.233 308.124H432.769V309.587H434.233V308.124Z" fill="#5468FF"/>
<path d="M437.162 308.124H435.697V309.587H437.162V308.124Z" fill="#5468FF"/>
<path d="M440.092 308.124H438.627V309.587H440.092V308.124Z" fill="#5468FF"/>
<path d="M443.02 308.124H441.556V309.587H443.02V308.124Z" fill="#5468FF"/>
<path d="M445.958 308.124H444.493V309.587H445.958V308.124Z" fill="#5468FF"/>
<path d="M448.886 308.124H447.422V309.587H448.886V308.124Z" fill="#5468FF"/>
<path d="M419.579 310.319H418.114V311.782H419.579V310.319Z" fill="#5468FF"/>
<path d="M422.508 310.319H421.043V311.782H422.508V310.319Z" fill="#5468FF"/>
<path d="M425.437 310.319H423.973V311.782H425.437V310.319Z" fill="#5468FF"/>
<path d="M428.366 310.319H426.901V311.782H428.366V310.319Z" fill="#5468FF"/>
<path d="M431.303 310.319H429.839V311.782H431.303V310.319Z" fill="#5468FF"/>
<path d="M434.233 310.319H432.769V311.782H434.233V310.319Z" fill="#5468FF"/>
<path d="M437.162 310.319H435.697V311.782H437.162V310.319Z" fill="#5468FF"/>
<path d="M440.092 310.319H438.627V311.782H440.092V310.319Z" fill="#5468FF"/>
<path d="M443.02 310.319H441.556V311.782H443.02V310.319Z" fill="#5468FF"/>
<path d="M445.958 310.319H444.493V311.782H445.958V310.319Z" fill="#5468FF"/>
<path d="M448.886 310.319H447.422V311.782H448.886V310.319Z" fill="#5468FF"/>
<path d="M419.579 312.522H418.114V313.986H419.579V312.522Z" fill="#5468FF"/>
<path d="M422.508 312.522H421.043V313.986H422.508V312.522Z" fill="#5468FF"/>
<path d="M425.437 312.522H423.973V313.986H425.437V312.522Z" fill="#5468FF"/>
<path d="M428.366 312.522H426.901V313.986H428.366V312.522Z" fill="#5468FF"/>
<path d="M431.303 312.522H429.839V313.986H431.303V312.522Z" fill="#5468FF"/>
<path d="M434.233 312.522H432.769V313.986H434.233V312.522Z" fill="#5468FF"/>
<path d="M437.162 312.522H435.697V313.986H437.162V312.522Z" fill="#5468FF"/>
<path d="M440.092 312.522H438.627V313.986H440.092V312.522Z" fill="#5468FF"/>
<path d="M443.02 312.522H441.556V313.986H443.02V312.522Z" fill="#5468FF"/>
<path d="M445.958 312.522H444.493V313.986H445.958V312.522Z" fill="#5468FF"/>
<path d="M448.886 312.522H447.422V313.986H448.886V312.522Z" fill="#5468FF"/>
<path d="M419.579 314.717H418.114V316.18H419.579V314.717Z" fill="#5468FF"/>
<path d="M422.508 314.717H421.043V316.18H422.508V314.717Z" fill="#5468FF"/>
<path d="M425.437 314.717H423.973V316.18H425.437V314.717Z" fill="#5468FF"/>
<path d="M428.366 314.717H426.901V316.18H428.366V314.717Z" fill="#5468FF"/>
<path d="M431.303 314.717H429.839V316.18H431.303V314.717Z" fill="#5468FF"/>
<path d="M434.233 314.717H432.769V316.18H434.233V314.717Z" fill="#5468FF"/>
<path d="M437.162 314.717H435.697V316.18H437.162V314.717Z" fill="#5468FF"/>
<path d="M440.092 314.717H438.627V316.18H440.092V314.717Z" fill="#5468FF"/>
<path d="M443.02 314.717H441.556V316.18H443.02V314.717Z" fill="#5468FF"/>
<path d="M445.958 314.717H444.493V316.18H445.958V314.717Z" fill="#5468FF"/>
<path d="M448.886 314.717H447.422V316.18H448.886V314.717Z" fill="#5468FF"/>
<path d="M419.579 316.912H418.114V318.376H419.579V316.912Z" fill="#5468FF"/>
<path d="M422.508 316.912H421.043V318.376H422.508V316.912Z" fill="#5468FF"/>
<path d="M425.437 316.912H423.973V318.376H425.437V316.912Z" fill="#5468FF"/>
<path d="M428.366 316.912H426.901V318.376H428.366V316.912Z" fill="#5468FF"/>
<path d="M431.303 316.912H429.839V318.376H431.303V316.912Z" fill="#5468FF"/>
<path d="M434.233 316.912H432.769V318.376H434.233V316.912Z" fill="#5468FF"/>
<path d="M437.162 316.912H435.697V318.376H437.162V316.912Z" fill="#5468FF"/>
<path d="M440.092 316.912H438.627V318.376H440.092V316.912Z" fill="#5468FF"/>
<path d="M443.02 316.912H441.556V318.376H443.02V316.912Z" fill="#5468FF"/>
<path d="M445.958 316.912H444.493V318.376H445.958V316.912Z" fill="#5468FF"/>
<path d="M448.886 316.912H447.422V318.376H448.886V316.912Z" fill="#5468FF"/>
<path d="M419.579 319.107H418.114V320.571H419.579V319.107Z" fill="#5468FF"/>
<path d="M422.508 319.107H421.043V320.571H422.508V319.107Z" fill="#5468FF"/>
<path d="M425.437 319.107H423.973V320.571H425.437V319.107Z" fill="#5468FF"/>
<path d="M428.366 319.107H426.901V320.571H428.366V319.107Z" fill="#5468FF"/>
<path d="M431.303 319.107H429.839V320.571H431.303V319.107Z" fill="#5468FF"/>
<path d="M434.233 319.107H432.769V320.571H434.233V319.107Z" fill="#5468FF"/>
<path d="M437.162 319.107H435.697V320.571H437.162V319.107Z" fill="#5468FF"/>
<path d="M440.092 319.107H438.627V320.571H440.092V319.107Z" fill="#5468FF"/>
<path d="M443.02 319.107H441.556V320.571H443.02V319.107Z" fill="#5468FF"/>
<path d="M445.958 319.107H444.493V320.571H445.958V319.107Z" fill="#5468FF"/>
<path d="M448.886 319.107H447.422V320.571H448.886V319.107Z" fill="#5468FF"/>
<path d="M419.579 321.302H418.114V322.766H419.579V321.302Z" fill="#5468FF"/>
<path d="M422.508 321.302H421.043V322.766H422.508V321.302Z" fill="#5468FF"/>
<path d="M425.437 321.302H423.973V322.766H425.437V321.302Z" fill="#5468FF"/>
<path d="M428.366 321.302H426.901V322.766H428.366V321.302Z" fill="#5468FF"/>
<path d="M431.303 321.302H429.839V322.766H431.303V321.302Z" fill="#5468FF"/>
<path d="M434.233 321.302H432.769V322.766H434.233V321.302Z" fill="#5468FF"/>
<path d="M437.162 321.302H435.697V322.766H437.162V321.302Z" fill="#5468FF"/>
<path d="M440.092 321.302H438.627V322.766H440.092V321.302Z" fill="#5468FF"/>
<path d="M443.02 321.302H441.556V322.766H443.02V321.302Z" fill="#5468FF"/>
<path d="M445.958 321.302H444.493V322.766H445.958V321.302Z" fill="#5468FF"/>
<path d="M448.886 321.302H447.422V322.766H448.886V321.302Z" fill="#5468FF"/>
<path d="M419.579 323.497H418.114V324.96H419.579V323.497Z" fill="#5468FF"/>
<path d="M422.508 323.497H421.043V324.96H422.508V323.497Z" fill="#5468FF"/>
<path d="M425.437 323.497H423.973V324.96H425.437V323.497Z" fill="#5468FF"/>
<path d="M428.366 323.497H426.901V324.96H428.366V323.497Z" fill="#5468FF"/>
<path d="M431.303 323.497H429.839V324.96H431.303V323.497Z" fill="#5468FF"/>
<path d="M434.233 323.497H432.769V324.96H434.233V323.497Z" fill="#5468FF"/>
<path d="M437.162 323.497H435.697V324.96H437.162V323.497Z" fill="#5468FF"/>
<path d="M440.092 323.497H438.627V324.96H440.092V323.497Z" fill="#5468FF"/>
<path d="M443.02 323.497H441.556V324.96H443.02V323.497Z" fill="#5468FF"/>
<path d="M445.958 323.497H444.493V324.96H445.958V323.497Z" fill="#5468FF"/>
<path d="M448.886 323.497H447.422V324.96H448.886V323.497Z" fill="#5468FF"/>
<path d="M419.579 325.692H418.114V327.155H419.579V325.692Z" fill="#5468FF"/>
<path d="M422.508 325.692H421.043V327.155H422.508V325.692Z" fill="#5468FF"/>
<path d="M425.437 325.692H423.973V327.155H425.437V325.692Z" fill="#5468FF"/>
<path d="M428.366 325.692H426.901V327.155H428.366V325.692Z" fill="#5468FF"/>
<path d="M431.303 325.692H429.839V327.155H431.303V325.692Z" fill="#5468FF"/>
<path d="M434.233 325.692H432.769V327.155H434.233V325.692Z" fill="#5468FF"/>
<path d="M437.162 325.692H435.697V327.155H437.162V325.692Z" fill="#5468FF"/>
<path d="M440.092 325.692H438.627V327.155H440.092V325.692Z" fill="#5468FF"/>
<path d="M443.02 325.692H441.556V327.155H443.02V325.692Z" fill="#5468FF"/>
<path d="M445.958 325.692H444.493V327.155H445.958V325.692Z" fill="#5468FF"/>
<path d="M448.886 325.692H447.422V327.155H448.886V325.692Z" fill="#5468FF"/>
<path d="M440.091 305.563H426.901V318.741H440.091V305.563Z" fill="#5468FF"/>
<path d="M414.412 297.946H407.788L405.071 292.467H398.757V291.426H405.714L408.431 296.897H414.412V297.946Z" fill="white"/>
<path d="M414.412 308.344H407.788L405.071 302.864H398.757V301.824H405.714L408.431 307.303H414.412V308.344Z" fill="white"/>
<path d="M414.412 318.741H407.788L405.071 313.27H398.757V312.229H405.714L408.431 317.701H414.412V318.741Z" fill="white"/>
<path d="M414.412 329.147H407.788L405.071 323.668H398.757V322.627H405.714L408.431 328.107H414.412V329.147Z" fill="white"/>
<path d="M462.174 302.1H468.797V301.059H462.817L460.099 295.58H453.143V296.621H459.457L462.174 302.1Z" fill="white"/>
<path d="M462.174 312.498H468.797V311.465H462.817L460.099 305.986H453.143V307.027H459.457L462.174 312.498Z" fill="white"/>
<path d="M462.174 322.904H468.797V321.863H462.817L460.099 316.384H453.143V317.424H459.457L462.174 322.904Z" fill="white"/>
<path d="M462.174 333.302H468.797V332.261H462.817L460.099 326.79H453.143V327.83H459.457L462.174 333.302Z" fill="white"/>
<path d="M469.456 296.182H467.259V338.041H469.456V296.182Z" fill="white"/>
<path d="M478.781 296.182H476.584V338.041H478.781V296.182Z" fill="white"/>
<path d="M477.682 299.815H468.667V334.415H477.682V299.815Z" fill="white"/>
<path d="M476.892 329.399H469.447V331.635H476.892V329.399Z" fill="#5468FF"/>
<path d="M476.892 324.936H469.447V327.164H476.892V324.936Z" fill="#5468FF"/>
<path d="M476.892 320.465H469.447V322.7H476.892V320.465Z" fill="#5468FF"/>
<path d="M476.892 316.002H469.447V318.229H476.892V316.002Z" fill="#5468FF"/>
<path d="M476.892 311.539H469.447V313.774H476.892V311.539Z" fill="#5468FF"/>
<path d="M476.892 307.067H469.447V309.303H476.892V307.067Z" fill="#5468FF"/>
<path d="M476.892 302.604H469.447V304.831H476.892V302.604Z" fill="#5468FF"/>
<path d="M485.371 302.1H478.748V301.059H484.728L487.446 295.58H494.403V296.621H488.089L485.371 302.1Z" fill="white"/>
<path d="M485.371 312.498H478.748V311.465H484.728L487.446 305.986H494.403V307.027H488.089L485.371 312.498Z" fill="white"/>
<path d="M485.371 322.904H478.748V321.863H484.728L487.446 316.384H494.403V317.424H488.089L485.371 322.904Z" fill="white"/>
<path d="M485.371 333.302H478.748V332.261H484.728L487.446 326.79H494.403V327.83H488.089L485.371 333.302Z" fill="white"/>
<path d="M277.09 327.017H170.2V339.976H277.09V327.017Z" fill="#5468FF"/>
<path d="M277.09 175.839H170.2V327.017H277.09V175.839Z" fill="#5468FF"/>
<path opacity="0.3" d="M277.09 175.839H170.2V327.017H277.09V175.839Z" fill="#000D44"/>
<path opacity="0.2" d="M269.816 183.107H177.482V319.741H269.816V183.107Z" fill="#000D44"/>
<path d="M217.085 197.35H189.046V201.114H217.085V197.35Z" fill="white"/>
<path d="M231.226 197.35H223.919V201.114H231.226V197.35Z" fill="white"/>
<path d="M244.74 197.35H237.434V201.114H244.74V197.35Z" fill="white"/>
<path d="M258.246 197.35H250.939V201.114H258.246V197.35Z" fill="white"/>
<path d="M185.4 197.35H181.633V201.114H185.4V197.35Z" fill="white"/>
<path d="M265.651 197.35H261.884V201.114H265.651V197.35Z" fill="white"/>
<path d="M217.085 259.517H189.046V263.281H217.085V259.517Z" fill="white"/>
<path d="M231.226 259.517H223.919V263.281H231.226V259.517Z" fill="white"/>
<path d="M244.74 259.517H237.434V263.281H244.74V259.517Z" fill="white"/>
<path d="M258.246 259.517H250.939V263.281H258.246V259.517Z" fill="white"/>
<path d="M185.4 259.517H181.633V263.281H185.4V259.517Z" fill="white"/>
<path d="M265.651 259.517H261.884V263.281H265.651V259.517Z" fill="white"/>
<path d="M203.065 213.301H189.046V217.065H203.065V213.301Z" fill="white"/>
<path d="M231.226 213.301H207.564V217.065H231.226V213.301Z" fill="white"/>
<path d="M244.74 213.301H237.434V217.065H244.74V213.301Z" fill="white"/>
<path d="M258.246 213.301H250.939V217.065H258.246V213.301Z" fill="white"/>
<path d="M185.4 213.301H181.633V217.065H185.4V213.301Z" fill="white"/>
<path d="M265.651 213.301H261.884V217.065H265.651V213.301Z" fill="white"/>
<path d="M203.065 303.352H189.046V307.116H203.065V303.352Z" fill="white"/>
<path d="M231.226 303.352H207.564V307.116H231.226V303.352Z" fill="white"/>
<path d="M244.74 303.352H237.434V307.116H244.74V303.352Z" fill="white"/>
<path d="M258.246 303.352H250.939V307.116H258.246V303.352Z" fill="white"/>
<path d="M185.4 303.352H181.633V307.116H185.4V303.352Z" fill="white"/>
<path d="M265.651 303.352H261.884V307.116H265.651V303.352Z" fill="white"/>
<path d="M203.065 273.687H189.046V277.451H203.065V273.687Z" fill="white"/>
<path d="M231.226 273.687H207.564V277.451H231.226V273.687Z" fill="white"/>
<path d="M244.74 273.687H237.434V277.451H244.74V273.687Z" fill="white"/>
<path d="M258.246 273.687H250.939V277.451H258.246V273.687Z" fill="white"/>
<path d="M185.4 273.687H181.633V277.451H185.4V273.687Z" fill="white"/>
<path d="M265.651 273.687H261.884V277.451H265.651V273.687Z" fill="white"/>
<path d="M230.208 247.062H258.247V243.298H230.208V247.062Z" fill="white"/>
<path d="M216.066 247.062H223.373V243.298H216.066V247.062Z" fill="white"/>
<path d="M202.552 247.062H209.858V243.298H202.552V247.062Z" fill="white"/>
<path d="M189.046 247.062H196.353V243.298H189.046V247.062Z" fill="white"/>
<path d="M261.892 247.062H265.659V243.298H261.892V247.062Z" fill="white"/>
<path d="M181.641 247.062H185.408V243.298H181.641V247.062Z" fill="white"/>
<path d="M244.228 231.113H258.247V227.349H244.228V231.113Z" fill="white"/>
<path d="M216.066 231.113H239.728V227.349H216.066V231.113Z" fill="white"/>
<path d="M202.552 231.113H209.858V227.349H202.552V231.113Z" fill="white"/>
<path d="M189.046 231.113H196.353V227.349H189.046V231.113Z" fill="white"/>
<path d="M261.892 231.113H265.659V227.349H261.892V231.113Z" fill="white"/>
<path d="M181.641 231.113H185.408V227.349H181.641V231.113Z" fill="white"/>
<path d="M244.228 293.564H258.247V289.8H244.228V293.564Z" fill="white"/>
<path d="M216.066 293.564H239.728V289.8H216.066V293.564Z" fill="white"/>
<path d="M202.552 293.564H209.858V289.8H202.552V293.564Z" fill="white"/>
<path d="M189.046 293.564H196.353V289.8H189.046V293.564Z" fill="white"/>
<path d="M261.892 293.564H265.659V289.8H261.892V293.564Z" fill="white"/>
<path d="M181.641 293.564H185.408V289.8H181.641V293.564Z" fill="white"/>
<path d="M156.271 117.721C156.409 118.144 156.523 118.534 156.678 118.989C158.017 122.947 159.75 126.76 161.853 130.37C163.187 132.5 165.775 134.671 166.808 136.744C167.221 137.568 167.689 138.364 168.208 139.126C164.831 144.004 156.068 157.011 153.944 162.653C153.944 162.653 137.402 153.711 134.311 143.955C134.302 143.906 150.047 128.11 156.271 117.721Z" fill="#EFAB89"/>
<path d="M106.499 441.189C106.499 441.189 107.012 459.887 109.941 462.448C112.87 465.009 150.111 466.123 153.317 462.708C156.523 459.294 154.643 453.546 146.645 451.327C138.077 448.953 133.87 451.278 128.508 449.042C123.146 446.807 124.562 438.352 124.562 438.352L106.499 441.189Z" fill="#000D44"/>
<path d="M14.1412 440.555C14.1412 440.555 11.269 458.774 14.1005 461.44C16.9321 464.107 54.8648 467.082 58.1926 463.798C61.5205 460.514 59.8688 454.701 51.9682 452.173C43.498 449.465 39.3971 451.181 33.9294 449.197C29.6333 447.636 32.5299 438.954 32.5299 438.954L14.1412 440.555Z" fill="#000D44"/>
<path d="M41.6673 335.692C41.0038 300.858 43.608 266.038 49.4459 231.69C55.6378 231.917 61.8542 232.503 68.038 235.283C79.4292 240.453 90.8204 245.412 102.26 250.388C92.9847 269.557 72.684 332.131 70.243 345.228C67.1999 361.487 33.1239 444.604 33.1239 444.604L12.5059 442.011C12.8313 428.621 41.7406 340.171 41.6673 335.692Z" fill="#1B255E"/>
<path d="M68.5585 239.844C76.5974 242.551 91.2107 246.437 102.26 250.412C109.949 269.825 132.667 315.652 133.846 336.374C135.148 359.235 127.231 445.856 127.231 445.856H103.635C103.635 445.856 101.447 348.227 98.1431 341.951C87.2482 321.27 75.206 304.872 68.3632 292.003C56.8825 270.411 52.9851 256.55 50.9672 246.477C50.0722 242.014 46.1747 227.056 53.7499 222.373C60.0069 224.072 61.8377 237.575 68.5585 239.844Z" fill="#1B255E"/>
<path d="M108.119 259.159C108.119 259.159 89.8687 249.298 72.0496 244.445C58.9416 240.876 56.1752 239.73 43.9134 239.567C43.647 239.565 43.386 239.493 43.1563 239.358C42.9266 239.223 42.7364 239.03 42.6046 238.799C42.4728 238.568 42.4041 238.306 42.4053 238.04C42.4065 237.774 42.4776 237.513 42.6115 237.283C49.8042 225.161 84.0592 168.181 100.731 154.044C119.445 138.159 136.76 141.362 136.76 141.362C136.76 141.362 145.8 154.068 155.905 158.434C155.905 158.434 149.632 196.643 141.715 212.008C133.798 227.373 108.119 259.159 108.119 259.159Z" fill="#5468FF"/>
<path d="M181.047 141.988C177.296 145.142 172.731 147.467 168.305 149.678C167.95 149.917 167.552 150.081 167.132 150.162C166.713 150.243 166.281 150.239 165.864 150.15C165.338 149.9 164.894 149.505 164.586 149.012C161.783 145.163 159.473 140.979 157.711 136.557C156.367 133.587 155.489 130.429 155.107 127.192C154.981 124.968 155.047 122.738 155.302 120.526C155.648 115.36 156.311 110.221 157.288 105.136C158.166 101.006 159.265 95.2425 163.227 92.9012C164.724 92.1036 166.327 91.5233 167.987 91.1777C173.292 89.8282 179.086 88.7388 184.081 90.942C188.491 92.9093 191.404 97.1123 194.317 100.958C196.115 103.331 198.109 105.982 197.808 108.949C197.599 110.257 197.161 111.517 196.514 112.672C194.773 116.241 192.95 119.786 191.494 123.485C189.696 128.045 188.426 132.891 185.676 136.947C184.371 138.832 182.814 140.528 181.047 141.988V141.988Z" fill="#F5B58F"/>
<path d="M177.947 108.795C178.623 109.358 179.213 110.018 179.696 110.754C182.104 114.132 185.032 117.109 188.37 119.574C189.688 120.55 191.201 121.477 192.837 121.338C194.773 121.176 196.238 119.583 198.004 118.761C200.615 117.542 203.756 118.07 206.417 116.981C207.984 116.29 209.272 115.09 210.071 113.576C210.87 112.062 211.133 110.323 210.819 108.64C210.184 105.689 207.792 103.323 207.304 100.348C206.816 97.3724 208.402 93.8442 207.035 91.0476C205.904 88.7144 203.154 87.6982 200.615 87.1861C198.077 86.6739 195.335 86.3731 193.293 84.7472C191.25 83.1213 190.144 80.0889 187.719 78.8451C185.628 77.772 183.13 78.2923 180.778 78.3817C175.612 78.585 170.494 76.5688 165.319 77.1135C161.203 77.5716 157.427 79.6126 154.79 82.8042C153.448 84.4301 153.228 86.7552 152.447 88.7226C151.568 90.9373 150.455 93.0521 149.127 95.0311C147.638 97.2424 145.873 99.3967 145.401 102.031C145.2 104.076 145.461 106.14 146.166 108.071C147.436 112.389 148.994 116.618 150.828 120.729C151.397 122.005 152.17 123.42 153.537 123.729C154.093 123.802 154.659 123.742 155.187 123.556C155.716 123.369 156.193 123.061 156.58 122.655C157.346 121.949 157.951 121.088 158.357 120.129C158.762 119.17 158.958 118.136 158.932 117.095C158.85 114.656 157.573 112.176 158.558 109.965C158.855 109.415 159.279 108.942 159.793 108.585C160.308 108.229 160.9 107.998 161.52 107.913C162.141 107.827 162.773 107.889 163.365 108.093C163.957 108.297 164.493 108.638 164.928 109.087C165.835 110.387 166.207 111.984 165.97 113.55C165.727 115.099 165.62 116.666 165.653 118.233C165.75 119.168 166.157 120.233 167.068 120.477C167.462 120.543 167.866 120.489 168.228 120.32C168.59 120.152 168.892 119.878 169.094 119.534C169.487 118.841 169.762 118.089 169.908 117.306C170.667 114.477 172.058 111.856 173.976 109.64C174.482 108.931 175.223 108.424 176.067 108.209C176.404 108.171 176.745 108.203 177.069 108.304C177.392 108.405 177.692 108.572 177.947 108.795Z" fill="#000D44"/>
<path d="M197.54 279.475C198.453 279.32 199.379 279.247 200.306 279.256C202.104 279.849 205.107 278.987 206.368 278.508C209.232 277.427 213.609 275.524 216.555 276.069C218.272 276.37 228.532 278.76 226.01 282.971C225.676 283.532 224.382 284.418 224.057 284.28C223.007 283.881 220.054 282.808 220.054 282.808C220.989 283.137 221.902 283.525 222.787 283.971C223.186 284.255 223.943 284.597 224.203 285.003C224.765 285.873 223.91 287.751 223.015 288.06C222.12 288.369 221.453 287.475 220.705 287.068H220.753C221.461 287.629 223.007 288.028 222.055 290.19C220.989 292.629 220.249 291.084 219.224 290.824C218.843 290.711 218.472 290.564 218.117 290.385C218.844 290.737 219.553 291.125 220.241 291.548C221.201 292.361 219.077 295.255 217.173 295.011C216.01 294.865 213.235 293.182 212.576 293.385C209.433 293.99 206.179 293.6 203.268 292.271C202.308 291.84 200.396 291.084 199.444 290.572C197.439 289.44 195.533 288.14 193.748 286.686C195.327 283.678 197.857 282.906 197.54 279.475Z" fill="white"/>
<path d="M196.693 290.678L205.782 277.061C205.782 277.061 181.144 239.803 171.486 220.78C161.828 201.756 155.815 167.458 145.506 162.133C135.197 156.808 122.276 159.255 123.708 176.449C125.14 193.643 150.648 224.04 155.009 232.811C159.371 241.583 191.453 285.036 196.693 290.678Z" fill="#5468FF"/>
<path opacity="0.15" d="M516.021 480C562.954 480 601 477.987 601 475.504C601 473.022 562.954 471.009 516.021 471.009C469.089 471.009 431.043 473.022 431.043 475.504C431.043 477.987 469.089 480 516.021 480Z" fill="#5468FF"/>
<path d="M549.895 450.295C549.895 450.295 550.863 457.4 550.985 458.424C551.107 459.448 561.774 457.798 561.774 457.798L562.636 449.343C562.636 449.343 551.229 449.295 549.895 450.295Z" fill="#F5B58F"/>
<path d="M550.847 457.562C550.847 457.562 547.47 461.839 544.199 463.708C540.928 465.578 535.794 466.31 533.866 468.245C532.474 469.635 528.788 475.634 542.36 475.521C555.932 475.407 562.474 476.334 563.93 474.065C565.387 471.797 561.823 457.083 561.823 457.083C561.823 457.083 558.528 458.05 550.847 457.562Z" fill="#000D44"/>
<path d="M476.063 450.295C476.063 450.295 477.032 457.4 477.154 458.424C477.276 459.448 487.943 457.798 487.943 457.798L488.805 449.343C488.805 449.343 477.39 449.295 476.063 450.295Z" fill="#F5B58F"/>
<path d="M477.039 457.563C477.039 457.563 473.663 461.839 470.392 463.708C467.121 465.578 455.095 467.107 453.167 469.033C451.775 470.424 449.456 476.041 468.553 475.537C482.125 475.163 488.666 476.35 490.123 474.082C491.579 471.814 488.015 457.099 488.015 457.099C484.381 457.611 480.704 457.766 477.039 457.563V457.563Z" fill="#000D44"/>
<path d="M546.306 278.199C549.76 286.722 551.377 295.878 551.05 305.068C550.334 319.701 553.881 335.708 555.33 350.992C556.957 368.064 563.564 408.362 563.8 417.476C564.036 426.589 562.775 455.685 562.775 455.685L549.528 456.002C549.528 456.002 538.406 385.486 535.525 378.291C532.645 371.096 518.357 326.904 517.877 321.148C517.397 315.392 546.306 278.199 546.306 278.199Z" fill="#1B255E"/>
<path d="M491.4 276.435C491.4 276.435 483.361 316.595 482.401 325.538C481.441 334.48 480.774 368.868 480.318 374.47C479.863 380.071 477.121 447.701 474.558 456.018H489.326C489.326 456.018 504.468 406.834 504.468 383.583C504.468 360.332 514.508 340.114 520.993 324.765C527.478 309.417 542.311 306.685 546.298 278.207C546.306 278.199 496.795 267.395 491.4 276.435Z" fill="#1B255E"/>
<path d="M536.623 168.718C541.415 160.588 542.79 149.841 544.002 140.516C544.572 136.126 545.573 129.875 542.489 127.135C539.177 124.192 538.86 119.656 535.06 117.379C531.26 115.103 526.11 114.94 522.514 117.518" fill="#000D44"/>
<path d="M523.345 197.383C521.604 197.515 519.854 197.296 518.199 196.739C516.545 196.182 515.019 195.298 513.713 194.14C512.408 192.982 511.349 191.573 510.599 189.997C509.849 188.422 509.425 186.712 509.35 184.969C509.057 177.904 508.797 170.758 508.797 170.758C508.797 170.758 498.073 169.783 497.267 159.19C496.462 148.597 496.738 124.119 496.738 124.119C502.608 121.143 509.166 119.786 515.736 120.189C522.306 120.592 528.648 122.74 534.109 126.411L533.556 163.726L533.613 183.798C533.54 190.521 530.058 196.846 523.345 197.383Z" fill="#F5B58F"/>
<path d="M507.779 146.215C509.602 143.947 512.58 143.036 515.029 144.589C516.232 145.419 517.101 146.648 517.481 148.058C517.861 149.468 517.727 150.967 517.104 152.288C516.558 153.269 515.816 154.126 514.922 154.806C514.029 155.486 513.004 155.974 511.913 156.239C510.935 156.452 510.07 157.017 509.483 157.827C508.896 158.637 508.628 159.634 508.731 160.629C509.041 163.287 513.475 164.279 515.485 166.474C518.601 169.888 525.436 171.352 530.033 171.848C534.63 172.344 534.012 172.417 536.624 168.693C538.384 166.172 539.28 163.149 539.178 160.076L539.593 136.622C539.761 133.805 539.572 130.978 539.032 128.208C538.474 125.415 536.882 122.935 534.573 121.265C531.986 119.574 528.715 119.444 525.777 118.501C522.1 117.322 518.967 114.9 515.525 113.152C512.084 111.404 507.861 110.364 504.419 112.111C501.978 113.363 500.294 115.835 497.91 117.217C494.484 119.176 489.814 118.745 488.146 123.794C487.588 125.551 487.613 127.442 488.219 129.184C490.562 136.037 499.073 138.776 505.192 135.793C505.314 136.955 504.175 139.541 505.412 143.207C505.802 144.378 505.949 146.166 507.788 146.191" fill="#000D44"/>
<path d="M509.691 152.824C509.65 152.824 509.65 153.028 509.837 153.28C509.983 153.455 510.164 153.598 510.369 153.699C510.574 153.799 510.797 153.856 511.025 153.865C512.213 153.971 513.718 152.694 513.767 150.93C513.789 150.521 513.728 150.111 513.588 149.726C513.448 149.341 513.232 148.987 512.954 148.686C512.52 148.212 511.953 147.88 511.326 147.735C510.236 147.508 509.601 147.914 509.65 147.987C509.699 148.06 510.301 147.938 511.18 148.256C511.733 148.435 512.213 148.79 512.545 149.267C512.877 149.744 513.043 150.317 513.019 150.898C513.029 151.473 512.835 152.033 512.472 152.479C512.108 152.926 511.599 153.229 511.033 153.337C510.163 153.393 509.772 152.759 509.691 152.824Z" fill="#EFAB89"/>
<path d="M506.168 180.66L508.926 174.986L533.629 174.083L536.664 181.449H506.559" fill="#5468FF"/>
<path opacity="0.2" d="M506.168 180.66L508.926 174.986L533.629 174.083L536.664 181.449H506.559" fill="#000D44"/>
<path d="M442.508 231.877H460.409L476.389 234.316L466.544 256.826L438.773 236.738L439.807 235.055C440.535 233.861 441.447 232.789 442.508 231.877V231.877Z" fill="#F5B58F"/>
<path d="M423.785 231.885C423.956 231.023 417.446 197.212 415.648 187.92C415.593 187.635 415.602 187.341 415.673 187.06C415.745 186.778 415.878 186.517 416.063 186.293C416.249 186.069 416.481 185.889 416.744 185.765C417.007 185.642 417.294 185.578 417.585 185.579H465.59C466.033 185.579 466.462 185.729 466.809 186.003C467.156 186.278 467.4 186.661 467.503 187.091L477.332 228.487L501.554 230.291L500.74 231.917L423.785 231.885Z" fill="#5468FF"/>
<path opacity="0.2" d="M423.785 231.885C423.956 231.023 417.446 197.212 415.648 187.92C415.593 187.635 415.602 187.341 415.673 187.06C415.745 186.778 415.878 186.517 416.063 186.293C416.249 186.069 416.481 185.889 416.744 185.765C417.007 185.642 417.294 185.578 417.585 185.579H465.59C466.033 185.579 466.462 185.729 466.809 186.003C467.156 186.278 467.4 186.661 467.503 187.091L477.332 228.487L501.554 230.291L500.74 231.917L423.785 231.885Z" fill="#000D44"/>
<path d="M425.892 228.885L418.122 187.887L465.306 188.172L475.664 228.942L425.892 228.885Z" fill="white"/>
<path opacity="0.05" d="M418.163 187.92L425.917 228.861L475.632 228.917L465.282 188.204L418.163 187.92Z" fill="#5468FF"/>
<path opacity="0.25" d="M429.188 218.812C429.391 218.86 429.599 218.882 429.807 218.877L431.572 218.934L438.082 219.032C443.574 219.089 451.157 219.121 459.53 219.121H466.796L466.698 218.755L462.5 202.496L461.214 197.765C461.082 197.188 460.905 196.623 460.685 196.074C460.751 196.661 460.863 197.243 461.019 197.813L462.133 202.594L466.129 218.853L466.413 218.487H459.53C451.157 218.487 443.566 218.487 438.082 218.576L431.572 218.674L429.807 218.731C429.598 218.731 429.39 218.758 429.188 218.812V218.812Z" fill="#5468FF"/>
<path opacity="0.25" d="M463.362 217.26L462.483 213.309H456.413L457.186 217.26H463.362Z" fill="#5468FF"/>
<path opacity="0.25" d="M455.111 217.26L453.272 209.479H447.202L448.927 217.26H455.111Z" fill="#5468FF"/>
<path opacity="0.25" d="M446.853 217.26L445.974 213.309H439.896L440.678 217.26H446.853Z" fill="#5468FF"/>
<path opacity="0.25" d="M438.594 217.259L435.12 202.138H429.05L432.418 217.259H438.594Z" fill="#5468FF"/>
<path opacity="0.25" d="M458.602 221.682C458.602 221.853 459.708 221.975 461.043 221.958C462.377 221.942 463.484 221.796 463.484 221.633C463.484 221.471 462.393 221.341 461.043 221.357C459.692 221.373 458.593 221.479 458.602 221.682Z" fill="#5468FF"/>
<path opacity="0.25" d="M450.595 221.666C450.595 221.837 451.701 221.959 453.036 221.942C454.37 221.926 455.477 221.78 455.477 221.617C455.477 221.455 454.386 221.324 453.036 221.341C451.685 221.357 450.587 221.479 450.595 221.666Z" fill="#5468FF"/>
<path opacity="0.25" d="M442.63 221.65C442.63 221.82 443.737 221.942 445.071 221.926C446.405 221.91 447.512 221.763 447.512 221.601C447.512 221.438 446.422 221.308 445.071 221.324C443.72 221.341 442.589 221.479 442.63 221.65Z" fill="#5468FF"/>
<path opacity="0.25" d="M434.591 221.641C434.591 221.812 435.697 221.934 437.032 221.918C438.366 221.902 439.473 221.755 439.473 221.593C439.473 221.43 438.383 221.3 437.032 221.316C435.681 221.333 434.583 221.479 434.591 221.641Z" fill="#5468FF"/>
<path opacity="0.25" d="M453.158 194.611C456.91 194.611 459.952 194.476 459.952 194.31C459.952 194.144 456.91 194.009 453.158 194.009C449.406 194.009 446.364 194.144 446.364 194.31C446.364 194.476 449.406 194.611 453.158 194.611Z" fill="#5468FF"/>
<path opacity="0.25" d="M456.519 192.928C458.182 192.928 459.53 192.793 459.53 192.627C459.53 192.461 458.182 192.326 456.519 192.326C454.857 192.326 453.509 192.461 453.509 192.627C453.509 192.793 454.857 192.928 456.519 192.928Z" fill="#5468FF"/>
<path d="M565.256 252.201L542.181 243.039L547.331 223.942L566.135 230.324L565.256 252.201Z" fill="#5468FF"/>
<path d="M467.479 257.355C461.726 254.501 460.253 247.648 463.061 241.909L486.966 190.855C487.522 189.588 488.357 188.463 489.407 187.562C492.089 185.179 495.22 183.354 498.616 182.193C502.012 181.032 505.606 180.557 509.187 180.798L534.117 180.148C534.117 180.148 553.702 180.148 561.049 195.594C561.586 196.724 572.969 219.284 580.48 234.153C581.301 235.773 581.769 237.549 581.854 239.363C581.938 241.177 581.638 242.988 580.971 244.678C580.305 246.367 579.288 247.897 577.987 249.165C576.687 250.434 575.132 251.413 573.425 252.038V252.038C570.366 253.161 566.994 253.082 563.99 251.817C560.986 250.553 558.575 248.197 557.241 245.225L549.105 227.064L547.819 233.568C545.509 245.29 544.304 263.647 547.388 275.362C547.999 277.593 548.319 279.894 548.34 282.207V282.483L489.325 280.012L494.207 246.624L495.713 226.17L483.174 252.005C482.5 253.395 481.557 254.637 480.4 255.661C479.242 256.684 477.893 257.467 476.43 257.966C474.968 258.465 473.421 258.67 471.879 258.567C470.337 258.465 468.83 258.059 467.446 257.371L467.479 257.355Z" fill="#5468FF"/>
<path d="M503.654 212.301C502.197 224.048 502.84 223.154 500.399 234.738C499.195 240.429 497.73 246.38 493.792 250.68L495.737 226.145L503.654 212.301Z" fill="#5468FF"/>
<path d="M558.234 245.477C558.794 246.374 559.446 247.211 560.179 247.973C559.733 247.017 559.202 246.103 558.592 245.242C557.559 243.616 556.151 241.315 554.621 238.738C553.092 236.161 551.798 231.421 550.846 229.795C550.385 228.849 549.841 227.946 549.219 227.096C549.537 228.105 549.96 229.077 550.48 229.999C551.342 231.747 552.595 236.502 554.117 239.088" fill="#5468FF"/>
<path d="M493.524 187.887C493.524 187.985 494.566 188.367 496.104 189.326C498.112 190.558 499.824 192.217 501.119 194.183C502.414 196.15 503.26 198.378 503.598 200.708C503.866 202.504 503.785 203.642 503.89 203.642C504.132 202.664 504.176 201.647 504.021 200.651C503.788 198.224 502.966 195.891 501.626 193.853C500.286 191.816 498.469 190.136 496.332 188.96C495.476 188.42 494.522 188.055 493.524 187.887Z" fill="#5468FF"/>
<path d="M550.188 226.808C553.454 212.171 555.97 200.276 555.808 200.24C555.646 200.204 552.866 212.04 549.6 226.677C546.333 241.313 543.817 253.208 543.979 253.244C544.142 253.28 546.921 241.444 550.188 226.808Z" fill="#5468FF"/>
<path d="M438.748 236.73L427.471 231.885H442.491L439.212 236.128" fill="#F5B58F"/>
<path d="M482.686 252.932C483.048 252.438 483.366 251.913 483.638 251.363C484.215 250.339 485.021 248.835 485.997 246.973C487.958 243.25 490.554 238.031 493.401 232.299C496.249 226.568 498.861 221.357 500.798 217.625L503.092 213.203C503.41 212.685 503.682 212.141 503.906 211.577C503.531 212.059 503.199 212.574 502.913 213.113C502.303 214.121 501.465 215.601 500.472 217.446C498.438 221.129 495.761 226.3 492.913 232.08L485.664 246.835L483.475 251.306C483.166 251.825 482.902 252.369 482.686 252.932Z" fill="#5468FF"/>
<path opacity="0.1" d="M558.234 245.477C558.794 246.374 559.446 247.211 560.179 247.973C559.733 247.017 559.202 246.103 558.592 245.242C557.559 243.616 556.151 241.315 554.621 238.738C553.092 236.161 551.798 231.421 550.846 229.795C550.385 228.849 549.841 227.946 549.219 227.096C549.537 228.105 549.96 229.077 550.48 229.999C551.342 231.747 552.595 236.502 554.117 239.088" fill="#000D44"/>
<path opacity="0.1" d="M493.524 187.887C493.524 187.985 494.566 188.367 496.104 189.326C498.112 190.558 499.824 192.217 501.119 194.183C502.414 196.15 503.26 198.378 503.598 200.708C503.866 202.504 503.785 203.642 503.89 203.642C504.132 202.664 504.176 201.647 504.021 200.651C503.788 198.224 502.966 195.891 501.626 193.853C500.286 191.816 498.469 190.136 496.332 188.96C495.476 188.42 494.522 188.055 493.524 187.887Z" fill="#000D44"/>
<path opacity="0.1" d="M550.188 226.808C553.454 212.171 555.97 200.276 555.808 200.24C555.646 200.204 552.866 212.04 549.6 226.677C546.333 241.313 543.817 253.208 543.979 253.244C544.142 253.28 546.921 241.444 550.188 226.808Z" fill="#000D44"/>
<path opacity="0.1" d="M482.686 252.932C483.048 252.438 483.366 251.913 483.638 251.363C484.215 250.339 485.021 248.835 485.997 246.973C487.958 243.25 490.554 238.031 493.401 232.299C496.249 226.568 498.861 221.357 500.798 217.625L503.092 213.203C503.41 212.685 503.682 212.141 503.906 211.577C503.531 212.059 503.199 212.574 502.913 213.113C502.303 214.121 501.465 215.601 500.472 217.446C498.438 221.129 495.761 226.3 492.913 232.08L485.664 246.835L483.475 251.306C483.166 251.825 482.902 252.369 482.686 252.932Z" fill="#000D44"/>
</svg>
