<svg width="1495" height="98" viewBox="0 0 1495 98" fill="none" xmlns="http://www.w3.org/2000/svg">
<path d="M96.3572 46.1043V57.5265C95.6977 58.1905 94.9489 58.7595 94.1325 59.2171C93.3364 59.6621 92.4933 60.0173 91.6187 60.276C90.727 60.5376 89.8128 60.7153 88.888 60.8071C87.9369 60.9042 86.9815 60.9524 86.0254 60.9516C84.1647 60.9663 82.3207 60.5984 80.6081 59.8707C78.956 59.1664 77.451 58.1581 76.1712 56.8981C74.899 55.6322 73.8823 54.1333 73.1766 52.4832C72.4419 50.7701 72.0696 48.9235 72.0831 47.0596C72.069 44.5927 72.7203 42.1676 73.9685 40.0397C74.5798 39.0083 75.3188 38.0581 76.1681 37.2117C77.8776 35.5096 79.9998 34.2807 82.327 33.6452C83.5326 33.313 84.778 33.147 86.0286 33.1518C87.0335 33.1503 88.0353 33.2652 89.0137 33.4943C89.9894 33.7212 90.9376 34.053 91.8418 34.4842C92.7513 34.9253 93.6172 35.4514 94.4279 36.0553C95.2566 36.6688 96.0275 37.3567 96.7312 38.1104L95.5874 39.2699C95.2635 39.6248 94.8666 39.9055 94.424 40.0926C93.9814 40.2798 93.5036 40.3689 93.0233 40.3539C92.3285 40.3597 91.6494 40.1476 91.0814 39.7475C90.3573 39.2498 89.5658 38.8583 88.7309 38.5848C87.8623 38.3033 86.9543 38.1622 86.0411 38.1669C84.8529 38.1625 83.6765 38.4021 82.5846 38.8708C80.4353 39.7686 78.7146 41.4601 77.7801 43.5936C77.3036 44.6834 77.0606 45.8608 77.0668 47.0501C77.0574 48.26 77.3104 49.4574 77.8084 50.5601C78.5421 52.1747 79.7253 53.5438 81.2164 54.5039C82.7076 55.464 84.4436 55.9744 86.2171 55.9742C86.822 55.9599 87.4254 55.9084 88.0239 55.8203C88.589 55.7354 89.1484 55.6157 89.6987 55.462C90.274 55.3032 90.8249 55.0664 91.3359 54.7582V50.9277L89.7647 50.8994C89.2931 50.9014 88.8266 50.8006 88.3978 50.6041C87.9792 50.3995 87.6409 50.0611 87.4363 49.6425C87.1584 49.0124 87.0345 48.3252 87.0749 47.6378V46.1137L96.3572 46.1043Z" fill="#070707"/>
<path d="M109.539 60.6971H104.555V33.4378H114.79C116.026 33.4191 117.251 33.6723 118.378 34.1794C119.415 34.6489 120.348 35.3184 121.125 36.1496C121.883 36.9592 122.483 37.9034 122.894 38.9336C123.613 40.6991 123.724 42.6539 123.208 44.4892C122.997 45.2466 122.68 45.9702 122.265 46.6385C121.382 48.0512 120.123 49.1903 118.63 49.9285C119.962 51.7447 121.287 53.5432 122.605 55.3238C123.922 57.1044 125.255 58.8955 126.602 60.6971H122.686C122.365 60.6895 122.047 60.6312 121.744 60.5243C121.35 60.3948 120.976 60.213 120.631 59.9838C120.203 59.7071 119.801 59.3916 119.431 59.0411C118.981 58.6003 118.577 58.1149 118.224 57.5925L113.26 50.8963H109.539V60.6971ZM114.944 45.8781C115.42 45.8753 115.89 45.768 116.32 45.5639C116.752 45.3684 117.14 45.0897 117.464 44.7437C117.791 44.3979 118.052 43.9954 118.234 43.5559C118.422 43.1149 118.519 42.6403 118.52 42.1608C118.52 41.673 118.423 41.19 118.234 40.7405C118.05 40.3018 117.789 39.8995 117.464 39.5527C117.139 39.2086 116.751 38.9311 116.32 38.7357C115.89 38.53 115.42 38.4227 114.944 38.4215H109.539V45.8592L114.944 45.8781Z" fill="#070707"/>
<path d="M139.749 33.4377H144.258L156.167 60.697H153.066C152.38 60.703 151.708 60.5122 151.127 60.1471C150.546 59.7827 150.088 59.2516 149.814 58.6231L148.195 54.9341H135.812L134.215 58.6231C134.085 58.9302 133.904 59.2137 133.681 59.4621C133.453 59.7149 133.191 59.9348 132.902 60.1157C132.61 60.3022 132.292 60.4461 131.959 60.5431C131.63 60.6453 131.286 60.6972 130.941 60.697H127.84L139.749 33.4377ZM138.018 49.9284H145.99L142.433 41.6737C142.281 41.3391 142.169 40.9879 142.099 40.6273C142.043 40.3131 142.005 40.068 141.993 39.9046C141.969 40.1506 141.932 40.3951 141.879 40.6367C141.809 40.9918 141.704 41.3391 141.565 41.6737L138.018 49.9284Z" fill="#070707"/>
<path d="M170.477 60.697H165.469V49.1491C165.475 48.7711 165.384 48.3977 165.205 48.0651C164.99 47.6911 164.755 47.3292 164.501 46.981L154.493 33.4377H158.317C159.084 33.4213 159.844 33.5906 160.532 33.9311C161.176 34.2624 161.723 34.7537 162.122 35.3577L167.505 42.6446C167.663 42.8558 167.78 43.0945 167.85 43.3485C167.913 43.5873 167.948 43.7413 167.96 43.8041C167.984 43.6528 168.02 43.5036 168.067 43.3579C168.143 43.0982 168.269 42.8559 168.438 42.6446L173.802 35.3765C174.192 34.758 174.741 34.2555 175.392 33.9217C176.082 33.5873 176.841 33.4214 177.607 33.4377H181.475L171.442 46.9998C171.291 47.2041 171.156 47.3895 171.046 47.5623C170.933 47.7242 170.828 47.892 170.732 48.0651C170.645 48.228 170.578 48.4011 170.534 48.5804C170.487 48.7663 170.465 48.9575 170.468 49.1491L170.477 60.697Z" fill="#070707"/>
<path d="M208.898 47.6095V58.1078C208.286 58.677 207.595 59.1553 206.846 59.5282C206.08 59.9086 205.277 60.2087 204.449 60.4237C203.58 60.6465 202.696 60.7989 201.803 60.8793C200.892 60.961 199.965 61.0019 199.028 61.0019C197.164 61.0152 195.317 60.6418 193.605 59.9052C191.951 59.2007 190.448 58.1876 189.174 56.9201C187.904 55.6517 186.891 54.1506 186.189 52.4989C185.467 50.779 185.095 48.9326 185.095 47.0674C185.095 45.2023 185.467 43.3559 186.189 41.636C186.893 39.9789 187.911 38.4735 189.187 37.2022C190.461 35.9356 191.965 34.9226 193.617 34.2171C197.049 32.7789 200.911 32.7585 204.358 34.1605C205.98 34.8387 207.461 35.8162 208.722 37.042L208.534 37.2148C208.312 37.4402 208.051 37.6233 207.764 37.7553C207.472 37.8785 207.157 37.9395 206.84 37.9344C206.404 37.9374 205.978 37.8045 205.621 37.5542C204.678 36.9068 203.647 36.3979 202.56 36.0427C201.423 35.6768 200.235 35.4943 199.041 35.5023C198.003 35.4981 196.969 35.6356 195.968 35.9108C195 36.1742 194.073 36.5675 193.212 37.0797C192.359 37.5833 191.572 38.1902 190.868 38.8865C190.166 39.5844 189.558 40.3715 189.061 41.2275C188.556 42.0974 188.163 43.0275 187.892 43.9959C187.611 44.9948 187.47 46.0281 187.474 47.0659C187.47 48.1053 187.614 49.1401 187.901 50.139C188.463 52.0778 189.519 53.8374 190.965 55.2452C191.682 55.9449 192.483 56.5528 193.35 57.0552C194.232 57.5654 195.176 57.9583 196.159 58.2241C197.166 58.4987 198.205 58.6361 199.248 58.6326C200.541 58.6369 201.828 58.4613 203.072 58.111C204.308 57.7579 205.487 57.2287 206.573 56.5398V49.985H204.156C203.846 49.9905 203.538 49.9316 203.251 49.8121C202.964 49.6926 202.706 49.515 202.491 49.2906C202.294 49.0777 202.139 48.8293 202.035 48.5585C201.928 48.2786 201.874 47.9814 201.875 47.6818V47.6063L208.898 47.6095Z" fill="#070707"/>
<path d="M219.478 60.697H217.099V33.4377H226.649C227.675 33.4295 228.693 33.6327 229.637 34.0348C230.541 34.4216 231.364 34.9772 232.06 35.6719C232.757 36.3676 233.313 37.1913 233.697 38.0977C234.099 39.0346 234.303 40.0445 234.297 41.0641C234.298 41.9921 234.137 42.9132 233.82 43.7853C233.515 44.6384 233.072 45.4356 232.509 46.1451C231.951 46.8408 231.267 47.425 230.492 47.8671C229.703 48.3178 228.828 48.5993 227.925 48.6935L236.94 60.697H235.818C234.514 60.697 233.546 60.2131 232.927 59.2547L224.993 48.6935H219.478V60.697ZM219.478 35.8133V46.3148H226.649C227.351 46.3193 228.048 46.1803 228.694 45.9063C229.32 45.6423 229.888 45.2604 230.369 44.7814C230.848 44.3005 231.232 43.7333 231.501 43.1097C231.781 42.4644 231.923 41.7676 231.918 41.0641C231.924 40.3645 231.781 39.6718 231.501 39.031C230.957 37.7735 229.953 36.7717 228.694 36.2312C228.049 35.9512 227.352 35.8089 226.649 35.8133H219.478Z" fill="#070707"/>
<path d="M245.653 60.697H243.275V33.4377H245.653V60.697Z" fill="#070707"/>
<path d="M254.841 60.6971V33.4378H264.868C267.285 33.4282 269.66 34.072 271.741 35.3012C273.762 36.4941 275.448 38.1794 276.643 40.2C277.869 42.2843 278.515 44.6586 278.515 47.0769C278.515 49.4951 277.869 51.8694 276.643 53.9537C276.047 54.9591 275.328 55.886 274.503 56.7127C272.836 58.3802 270.765 59.5855 268.491 60.21C267.312 60.5384 266.093 60.7023 264.868 60.6971H254.841ZM264.868 58.3184C266.38 58.3306 267.878 58.0299 269.268 57.4354C270.601 56.8655 271.814 56.0489 272.844 55.0284C273.873 54.0039 274.693 52.7895 275.26 51.4525C275.843 50.0673 276.143 48.5796 276.143 47.0769C276.143 45.5741 275.843 44.0864 275.26 42.7012C274.692 41.3622 273.871 40.145 272.844 39.1159C271.815 38.0915 270.602 37.2715 269.268 36.6995C267.878 36.1039 266.38 35.8022 264.868 35.8134H257.22V58.3184H264.868Z" fill="#070707"/>
<path d="M295.801 37.0106C295.509 36.8095 295.251 36.6178 295.031 36.4418C294.572 36.0726 294.035 35.8126 293.46 35.6814C293.047 35.5969 292.625 35.559 292.203 35.5683C291.489 35.5642 290.78 35.6899 290.11 35.939C289.478 36.172 288.89 36.5098 288.37 36.9383C287.88 37.3427 287.477 37.8405 287.182 38.4026C286.893 38.9474 286.743 39.5551 286.745 40.1717C286.726 40.7674 286.82 41.3613 287.022 41.9219C287.224 42.4002 287.549 42.8164 287.964 43.1286C288.493 43.5312 289.076 43.858 289.696 44.0996C290.412 44.397 291.297 44.7301 292.351 45.0988C292.91 45.3083 293.434 45.4989 293.922 45.6707C294.403 45.8467 294.865 46.0289 295.292 46.2112C295.704 46.3856 296.107 46.5817 296.499 46.7988C296.873 47.0105 297.233 47.2488 297.573 47.5121C298.43 48.1512 299.085 49.0241 299.459 50.0259C299.829 51.0708 300.012 52.1728 299.999 53.2813C300.017 54.3929 299.776 55.4933 299.295 56.4959C298.84 57.4298 298.192 58.2567 297.394 58.9217C296.564 59.605 295.612 60.1243 294.588 60.452C293.475 60.8146 292.311 60.9939 291.141 60.983C288.77 60.983 286.772 60.2792 285.149 58.8714C284.74 58.4999 284.362 58.0964 284.017 57.6648C283.742 57.3168 283.492 56.9503 283.266 56.5681L283.549 56.3984C283.911 56.1753 284.325 56.0507 284.75 56.0371C285.045 56.0357 285.339 56.077 285.623 56.1596C285.905 56.2442 286.162 56.3988 286.368 56.609C286.804 57.0242 287.278 57.3966 287.785 57.7213C288.161 57.9568 288.563 58.1486 288.982 58.2932C289.334 58.4082 289.698 58.481 290.066 58.5101C290.414 58.5352 290.772 58.554 291.141 58.5666C291.913 58.5911 292.685 58.5044 293.432 58.309C294.176 58.127 294.879 57.8072 295.506 57.3663C296.124 56.9286 296.638 56.36 297.011 55.7009C297.415 54.9622 297.616 54.1293 297.592 53.2876C297.628 52.4262 297.473 51.5676 297.137 50.7738C296.849 50.1683 296.418 49.6428 295.88 49.2435C295.293 48.8252 294.648 48.495 293.966 48.2631C293.231 48.0012 292.438 47.7058 291.587 47.377C290.509 46.9465 289.526 46.5442 288.64 46.1797C287.825 45.8534 287.061 45.4144 286.368 44.8757C285.742 44.3795 285.24 43.7449 284.9 43.0217C284.52 42.1203 284.342 41.1463 284.379 40.1686C284.366 39.161 284.608 38.1664 285.083 37.2777C285.54 36.4282 286.156 35.675 286.899 35.0592C287.648 34.4419 288.499 33.9593 289.413 33.6326C290.312 33.3046 291.262 33.1345 292.219 33.1298C292.958 33.1205 293.693 33.2265 294.4 33.4441C295.024 33.6397 295.623 33.9075 296.184 34.2422C296.71 34.5546 297.202 34.9211 297.652 35.3357C298.088 35.7421 298.49 36.1422 298.858 36.5361L298.268 36.954C298.108 37.0708 297.932 37.1639 297.746 37.2305C297.515 37.3049 297.273 37.34 297.03 37.3342C296.597 37.3495 296.17 37.237 295.801 37.0106V37.0106Z" fill="#070707"/>
<path d="M58.3261 50.4227C60.2627 35.2846 49.5607 21.443 34.4227 19.5064C19.2847 17.5699 5.44296 28.2718 3.50642 43.4098C1.56988 58.5479 12.2718 72.3896 27.4099 74.3261C42.5479 76.2627 56.3896 65.5607 58.3261 50.4227Z" fill="#070707"/>
<path d="M32.1761 47.0658V49.7148H37.9768V54.1454H32.217V54.1297C32.063 54.1297 31.9028 54.1454 31.7488 54.1454C30.8931 54.1477 30.0457 53.9778 29.257 53.6458C28.1108 53.161 27.1288 52.3558 26.4289 51.3268C25.5694 50.0531 25.1969 48.5127 25.3797 46.987C25.5624 45.4613 26.2882 44.0524 27.4242 43.0178C28.5603 41.9832 30.0307 41.392 31.5668 41.3524C33.1028 41.3127 34.6018 41.8272 35.7898 42.8018H47.102C46.9574 42.3493 46.7878 41.9031 46.6087 41.4694C45.4741 38.7816 43.6319 36.4517 41.2784 34.7277C38.9248 33.0037 36.1479 31.95 33.243 31.6788C30.3382 31.4076 27.4142 31.9291 24.7822 33.1877C22.1502 34.4463 19.9086 36.395 18.2962 38.8264C16.6837 41.2577 15.7605 44.0808 15.625 46.9951C15.4895 49.9094 16.1467 52.8059 17.5266 55.3764C18.9065 57.9469 20.9575 60.0952 23.4613 61.5926C25.9652 63.0901 28.8282 63.8806 31.7457 63.8802H47.7713V47.0596L32.1761 47.0658ZM37.9768 61.2061H32.6349C32.4338 61.2061 32.2264 61.2281 32.0065 61.2312H31.5414C29.2254 61.1988 26.9568 60.5703 24.9542 59.4063C22.9517 58.2423 21.2828 56.5821 20.1084 54.5857C18.934 52.5892 18.2936 50.3239 18.2491 48.0081C18.2046 45.6923 18.7574 43.4041 19.8543 41.364C20.9511 39.3239 22.555 37.6008 24.5113 36.3607C26.4677 35.1206 28.7104 34.4054 31.0235 34.284C33.3366 34.1626 35.6419 34.6391 37.7173 35.6676C39.7927 36.6961 41.5681 38.2419 42.8725 40.156H36.657C35.4749 39.3933 34.1313 38.9166 32.7328 38.764C31.3344 38.6113 29.9195 38.7867 28.6007 39.2764C27.2819 39.7661 26.0954 40.5564 25.1354 41.5848C24.1754 42.6131 23.4684 43.8511 23.0705 45.2004C22.6725 46.5498 22.5947 47.9733 22.843 49.358C23.0914 50.7427 23.6592 52.0504 24.5013 53.1773C25.3433 54.3043 26.4365 55.2194 27.6941 55.8499C28.9516 56.4805 30.3389 56.8093 31.7457 56.8101H37.9768V61.2061ZM45.1475 61.2312H40.6289L40.654 61.2155H40.6289V56.8163H45.1475V61.2312ZM45.1475 54.1517H40.6289V49.7211H45.1475V54.1517Z" fill="#262626"/>
<path d="M31.3937 46.23V48.8789H37.1975V53.3096H31.4314V53.2938C31.2775 53.2938 31.1172 53.3096 30.9664 53.3096C29.9173 53.3114 28.884 53.0543 27.9581 52.561C27.0323 52.0676 26.2426 51.3533 25.6591 50.4815C25.0662 49.598 24.7018 48.5811 24.5987 47.5221C24.4956 46.4631 24.657 45.3951 25.0683 44.4138C25.5524 43.2662 26.3591 42.2838 27.3905 41.5857C28.2726 40.991 29.2891 40.6255 30.348 40.5224C31.4068 40.4192 32.4747 40.5817 33.4551 40.995C34.021 41.2328 34.5501 41.5502 35.0262 41.9376H46.3384C46.1907 41.4851 46.0242 41.0389 45.8451 40.6053C44.7064 37.9222 42.8623 35.5976 40.5085 33.8785C38.1547 32.1594 35.3793 31.1099 32.4769 30.8416C29.5746 30.5733 26.6538 31.0962 24.0247 32.3547C21.3957 33.6132 19.1567 35.5603 17.5455 37.9892C15.9342 40.4181 15.011 43.2381 14.8739 46.1496C14.7368 49.0611 15.3908 51.9553 16.7666 54.5249C18.1424 57.0945 20.1885 59.2435 22.6876 60.7435C25.1866 62.2435 28.0454 63.0386 30.9601 63.0443H46.9857V46.2143L31.3937 46.23ZM37.1975 60.3703H31.8556C31.6514 60.3703 31.4471 60.3923 31.2272 60.3954H30.7716C28.4547 60.3662 26.1844 59.7405 24.1797 58.5786C22.1751 57.4166 20.5037 55.7577 19.3267 53.7618C18.1498 51.7659 17.507 49.5004 17.4605 47.1838C17.4139 44.8672 17.9652 42.5777 19.061 40.5361C20.1568 38.4946 21.7602 36.7699 23.7166 35.5283C25.673 34.2868 27.9163 33.5704 30.2301 33.4482C32.544 33.326 34.8502 33.8021 36.9265 34.8306C39.0028 35.8591 40.779 37.4053 42.0838 39.3201H35.8746C34.6933 38.5515 33.3488 38.0694 31.9483 37.9123C30.5477 37.7551 29.1298 37.9273 27.8075 38.415C26.4852 38.9027 25.2951 39.6924 24.3321 40.7214C23.369 41.7503 22.6595 42.99 22.2602 44.3416C21.8609 45.6932 21.7828 47.1194 22.0321 48.5065C22.2814 49.8936 22.8513 51.2033 23.6962 52.3313C24.5412 53.4593 25.6379 54.3743 26.899 55.0035C28.1601 55.6327 29.5507 55.9586 30.9601 55.9554H37.1912L37.1975 60.3703ZM44.3682 60.3954H39.8496L39.8716 60.3797H39.8496V55.9554H44.3682V60.3954ZM44.3682 53.3158H39.8496V48.8852H44.3682V53.3158Z" fill="white"/>
<path d="M37.1975 55.9585H39.8496V57.2186H37.1975V55.9585Z" fill="#999999"/>
<path d="M35.0514 48.8789H37.1976V50.139H39.8465V48.8789H41.7916V48.8758H35.0514V48.8789Z" fill="#999999"/>
<path d="M893.696 68.6556C894.171 68.8931 894.646 69.1306 895.596 69.3682C899.159 71.0309 902.485 71.981 906.523 71.981C919.587 71.981 930.513 61.0546 930.513 47.9905C930.513 34.9264 919.587 24 906.76 24C898.209 24 890.371 32.3135 885.145 37.5392L878.732 43.9525L867.805 33.0261C863.53 28.7506 858.779 24 850.466 24C836.926 24.2375 826 35.1639 826 48.228C826 61.2922 836.926 72.2185 849.753 72.2185C853.316 72.2185 857.354 71.5059 860.679 69.6057C863.767 67.7055 872.081 62.7173 876.831 57.9667L878.019 56.7791L883.957 62.4798C887.995 66.0428 891.083 67.4679 893.696 68.6556ZM889.895 45.3777C890.846 44.4276 891.796 43.4774 892.508 42.7649C896.309 38.9644 902.247 33.2637 906.523 33.2637C914.599 33.2637 921.724 40.8646 921.724 48.9406C921.724 57.0166 914.836 64.1425 906.523 64.1425C903.91 64.1425 899.634 62.7173 897.021 61.2922C890.133 57.2542 884.432 50.6033 884.432 50.6033L889.895 45.3777ZM870.893 51.5535C867.093 55.3539 859.729 60.1045 857.116 61.5297C854.741 62.7173 852.841 63.4299 850.228 63.4299C842.152 63.4299 835.026 56.5416 835.026 48.228C835.026 40.152 841.914 33.0261 850.228 33.0261C854.979 33.0261 857.116 35.1639 861.154 39.4394L872.318 50.3658L870.893 51.5535Z" fill="#756AF8"/>
<path d="M938.589 63.1924C938.114 62.7173 937.876 61.7672 937.876 60.8171V36.3515C937.876 35.4014 938.114 34.4513 938.827 33.9762C939.539 33.2637 940.252 33.0261 941.202 33.0261C942.152 33.0261 943.102 33.2637 943.577 33.9762C944.29 34.6888 944.527 35.4014 944.527 36.3515V58.4418H955.691C957.829 58.4418 958.779 59.3919 958.779 61.2922C958.779 63.1924 957.829 64.1425 955.691 64.1425H940.964C939.777 63.905 939.064 63.6675 938.589 63.1924Z" fill="#756AF8"/>
<path d="M962.342 37.7767C961.867 37.3016 961.629 36.8266 961.392 36.114C961.154 35.1639 961.392 34.2138 962.105 33.5012C962.58 32.7886 963.292 32.5511 964.242 32.3135C964.955 32.076 965.905 32.076 966.618 32.3135C968.28 32.7886 969.23 34.9264 968.755 36.3515C967.805 38.9644 964.242 39.4394 962.342 37.7767ZM962.58 63.4299C961.867 62.9549 961.629 62.0047 961.629 61.0546V45.1401C961.629 44.19 961.867 43.2399 962.58 42.7648C963.292 42.2898 964.005 42.0522 964.955 42.0522C965.905 42.0522 966.618 42.2898 967.33 42.7648C968.043 43.2399 968.28 43.9525 968.28 45.1401V61.0546C968.28 62.0047 968.043 62.9549 967.33 63.4299C966.143 64.1425 964.717 64.38 963.53 63.905C963.055 63.905 962.817 63.6674 962.58 63.4299Z" fill="#756AF8"/>
<path d="M992.508 44.4275C993.696 45.8527 994.409 48.228 994.409 51.3159V61.2921C994.409 62.2422 994.171 62.9548 993.458 63.6674C992.746 64.1425 992.033 64.38 991.083 64.38C990.133 64.38 989.183 64.1425 988.708 63.6674C988.233 63.1923 987.758 62.4797 987.758 61.2921V51.5534C987.758 50.1282 987.52 48.9405 987.045 48.4655C986.57 47.7529 985.62 47.5154 984.432 47.5154C983.007 47.5154 982.057 47.9904 981.107 48.9406C980.394 49.8907 979.919 51.0783 979.919 52.5035V61.7671C979.919 62.7173 979.682 63.4299 978.969 64.1424C978.494 64.6175 977.544 64.855 976.594 64.855C975.644 64.855 974.694 64.6175 974.219 64.1424C973.506 63.6674 973.268 62.9548 973.268 61.7671V45.8527C973.268 44.9025 973.506 44.19 974.219 43.7149C974.931 43.2398 975.644 43.0023 976.594 43.0023C977.544 43.0023 978.257 43.2398 978.732 43.7149C979.207 44.19 979.682 44.9025 979.682 45.8527V46.5653C979.682 46.3277 979.919 46.0902 979.919 46.0902C980.157 45.8527 980.157 45.8527 980.394 45.6151C980.632 45.3776 981.107 44.9025 981.344 44.665C983.007 43.4774 985.145 42.7648 987.045 42.7648C989.183 42.5272 991.321 42.7648 992.508 44.4275Z" fill="#756AF8"/>
<path d="M1017.92 58.4417C1018.16 58.6793 1018.16 58.6793 1018.16 58.9168C1018.4 59.6294 1018.4 60.5795 1017.92 61.2921C1017.45 62.2422 1016.74 62.4797 1016.02 62.9548C1015.07 63.4298 1014.12 63.6674 1013.17 63.9049C1011.75 64.1424 1010.56 64.38 1009.61 64.38C1007.24 64.38 1005.33 63.9049 1003.43 62.9548C1001.77 62.0047 1000.35 60.817 999.397 59.1543C998.447 57.4916 997.971 55.5914 997.971 53.2161C997.971 51.0783 998.447 49.1781 999.397 47.5154C1000.35 45.8527 1001.53 44.4275 1003.2 43.4774C1004.86 42.5272 1006.52 42.0522 1008.66 42.0522C1010.56 42.0522 1012.22 42.5272 1013.89 43.2398C1015.31 44.19 1016.5 45.3776 1017.21 46.8028C1017.92 48.4655 1018.4 50.1282 1018.4 52.266C1018.4 52.9785 1018.16 53.4536 1017.92 53.6911C1017.69 53.9287 1017.21 54.1662 1016.74 54.1662H1004.62C1004.86 55.8289 1005.33 57.0165 1006.29 57.9667C1007.24 58.9168 1008.42 59.1543 1009.85 59.1543C1010.8 59.1543 1011.51 59.1543 1012.22 58.9168C1012.94 58.6793 1013.65 58.4417 1014.36 58.2042C1015.07 57.9667 1015.79 57.7291 1016.5 57.7291C1016.74 57.7291 1017.21 57.7291 1017.45 57.9667C1017.69 57.9667 1017.92 58.2042 1017.92 58.4417ZM1006.05 47.7529C1005.33 48.4655 1004.86 49.6531 1004.62 51.3158H1012.94C1012.94 49.8907 1012.46 48.703 1011.75 47.7529C1011.04 47.0403 1010.09 46.5652 1008.9 46.5652C1007.71 46.5652 1006.76 47.0403 1006.05 47.7529Z" fill="#756AF8"/>
<path d="M1024.1 63.4299C1023.39 62.9549 1023.15 62.0048 1023.15 61.0546V36.3515C1023.15 35.4014 1023.39 34.4513 1024.1 33.9762C1024.81 33.2637 1025.52 33.0261 1026.48 33.0261C1027.43 33.0261 1028.38 33.2637 1028.85 33.9762C1029.56 34.6888 1029.8 35.4014 1029.8 36.3515V60.8171C1029.8 61.5297 1029.56 62.4798 1029.09 63.1924C1028.14 63.905 1026.71 64.6176 1025.29 64.1425C1024.81 63.905 1024.34 63.6675 1024.1 63.4299Z" fill="#756AF8"/>
<path d="M1039.54 62.9548C1037.88 62.0047 1036.69 60.8171 1035.74 59.1544C1034.79 57.4917 1034.31 55.5914 1034.31 53.2161C1034.31 51.0784 1034.79 48.9406 1035.74 47.2779C1036.69 45.6152 1038.11 44.19 1039.78 43.2399C1041.44 42.2898 1043.58 41.8147 1045.72 41.8147C1046.9 41.8147 1048.09 42.0522 1049.28 42.2898C1050.23 42.5273 1051.42 43.0023 1052.37 43.7149C1053.79 44.6651 1054.27 46.5653 1053.32 47.9905C1053.08 48.228 1053.08 48.4655 1052.6 48.7031C1052.13 48.9406 1051.89 48.7031 1051.42 48.7031C1050.47 48.4655 1049.52 48.228 1048.57 47.7529C1047.85 47.5154 1047.14 47.0404 1046.19 47.0404C1044.53 47.0404 1043.34 47.7529 1042.15 48.7031C1041.2 49.6532 1040.96 51.3159 1040.96 53.2161C1040.96 55.1164 1041.44 56.7791 1042.15 57.7292C1043.1 58.6793 1044.29 59.3919 1045.95 59.3919C1046.9 59.3919 1047.38 59.1544 1048.33 58.9168C1049.04 58.6793 1049.52 58.4418 1050.23 58.2042C1051.42 57.7292 1052.37 57.7292 1053.08 58.4418C1053.55 58.9168 1053.55 59.6294 1053.55 60.342C1053.55 61.5297 1053.08 62.2423 1052.13 62.7173C1051.18 63.1924 1050.23 63.6674 1048.8 64.1425C1047.38 64.6175 1046.19 64.6176 1045 64.6176C1043.1 64.38 1041.2 63.905 1039.54 62.9548Z" fill="#756AF8"/>
<path d="M1061.39 62.9548C1059.73 62.0047 1058.3 60.817 1057.35 59.1543C1056.4 57.4916 1055.93 55.5914 1055.93 53.2161C1055.93 50.8408 1056.4 48.9405 1057.35 47.2778C1058.3 45.6151 1059.49 44.4275 1061.39 43.4774C1063.05 42.5272 1065.19 42.0522 1067.33 42.0522C1069.47 42.0522 1071.61 42.5272 1073.27 43.4774C1074.93 44.4275 1076.36 45.6151 1077.31 47.2778C1078.26 48.9405 1078.73 50.8408 1078.73 53.2161C1078.73 55.5914 1078.26 57.4916 1077.31 59.1543C1076.36 60.817 1075.17 62.0047 1073.27 62.9548C1071.61 63.9049 1069.47 64.38 1067.33 64.38C1065.19 64.38 1063.05 63.9049 1061.39 62.9548ZM1072.08 53.2161C1072.08 51.0783 1071.61 49.6531 1070.89 48.703C1070.18 47.7529 1068.99 47.2778 1067.33 47.2778C1064.24 47.2778 1062.58 49.4156 1062.58 53.4536C1062.58 57.4916 1064.24 59.6294 1067.33 59.6294C1070.66 59.3919 1072.08 57.2541 1072.08 53.2161Z" fill="#756AF8"/>
<path d="M1101.77 44.4276C1102.96 45.8527 1103.67 48.228 1103.67 51.3159V61.2922C1103.67 62.2423 1103.43 62.9549 1102.72 63.6675C1102.01 64.1425 1101.3 64.38 1100.35 64.38C1099.4 64.38 1098.45 64.1425 1097.97 63.6675C1097.5 63.1924 1097.02 62.4798 1097.02 61.2922V51.5534C1097.02 50.1283 1096.78 48.9406 1096.31 48.4655C1095.83 47.753 1094.88 47.5154 1093.7 47.5154C1092.27 47.5154 1091.32 47.9905 1090.37 48.9406C1089.66 49.8907 1089.18 51.0784 1089.18 52.5036V61.7672C1089.18 62.7173 1088.95 63.4299 1088.23 64.1425C1087.76 64.6176 1086.81 64.8551 1085.86 64.8551C1084.91 64.8551 1083.96 64.6176 1083.48 64.1425C1082.77 63.6674 1082.53 62.9549 1082.53 61.7672V45.8527C1082.53 44.9026 1082.77 44.19 1083.48 43.715C1084.19 43.2399 1084.91 43.0024 1085.86 43.0024C1086.81 43.0024 1087.52 43.2399 1088 43.715C1088.47 44.19 1088.95 44.9026 1088.95 45.8527V46.5653C1088.95 46.0903 1089.66 45.3777 1090.13 45.1401C1090.61 44.6651 1091.08 44.4275 1091.56 44.19C1094.41 42.5273 1099.4 41.5772 1101.77 44.4276Z" fill="#756AF8"/>
<path d="M1112.22 63.9049C1111.99 63.9049 1111.51 63.6674 1111.27 63.6674C1110.32 63.4299 1109.37 62.9548 1108.66 62.4798C1108.19 62.2422 1107.95 61.7672 1107.71 61.5296C1107.47 61.0546 1107.47 60.5795 1107.47 60.1045C1107.47 59.3919 1107.71 58.9168 1107.95 58.4418C1108.42 57.9667 1108.9 57.7292 1109.37 57.7292C1109.85 57.7292 1110.09 57.7292 1110.56 57.9667C1111.04 58.2042 1111.27 58.2042 1111.75 58.4418C1112.46 58.9168 1113.41 59.1543 1114.12 59.3919C1114.84 59.6294 1115.79 59.6294 1116.97 59.6294C1117.92 59.6294 1118.87 59.3919 1119.35 59.1543C1119.82 58.9168 1120.3 58.4417 1120.3 57.9667C1120.3 57.4916 1120.06 57.2541 1119.82 57.0166C1119.59 56.779 1119.11 56.5415 1118.4 56.304C1117.69 56.0665 1116.74 55.8289 1115.31 55.5914C1112.7 55.1163 1110.8 54.4037 1109.61 53.4536C1108.42 52.5035 1107.95 51.0783 1107.95 49.4156C1107.95 46.8028 1109.61 44.665 1111.99 43.7149C1113.41 43.0023 1114.84 42.7648 1116.26 42.7648C1118.16 42.5273 1120.06 42.7648 1121.72 43.4774C1123.39 43.9524 1125.29 45.1401 1125.29 47.0403C1125.29 47.7529 1125.05 48.228 1124.81 48.703C1124.34 49.1781 1123.86 49.4156 1123.39 49.4156C1121.96 49.4156 1120.77 48.4655 1119.35 47.9904C1117.92 47.5154 1116.26 47.5154 1114.84 47.9904C1114.36 48.228 1113.89 48.4655 1113.89 48.9406C1113.65 49.4156 1113.89 49.8907 1114.36 50.1282C1114.84 50.6033 1115.55 50.6033 1116.26 50.8408C1116.97 51.0783 1117.69 51.0783 1118.4 51.3159C1120.3 51.7909 1121.96 52.266 1122.91 52.741C1124.1 53.2161 1124.81 53.9287 1125.29 54.8788C1125.76 55.5914 1126 56.779 1126 57.9667C1126 60.1045 1125.05 61.7672 1123.39 62.9548C1122.2 63.9049 1120.54 64.38 1118.87 64.6175C1116.74 64.8551 1114.36 64.38 1112.22 63.9049Z" fill="#756AF8"/>
<path d="M689.142 50.574L712.854 21.9782H701.214L679.954 47.6118V47.4476L670.32 59.128L668.224 61.6694C668.164 61.7706 668.106 61.8746 668.044 61.9758L664.432 66.3304C663.762 66.9386 663.054 67.5036 662.308 68.0154C659.14 70.186 655.352 71.4476 651.234 71.4488V71.5976C648.494 71.5928 645.906 71.0318 643.546 70.0192C639.996 68.4942 636.962 65.9378 634.824 62.7252C632.688 59.5074 631.444 55.662 631.442 51.4798C631.442 48.688 631.996 46.0536 632.996 43.6502C634.498 40.0436 637.016 36.9634 640.182 34.7924C643.35 32.623 647.138 31.362 651.258 31.3602C655.612 31.362 659.602 32.7714 662.874 35.1752L668.098 27.8552C663.376 24.3742 657.534 22.3164 651.258 22.3176C647.304 22.3176 643.516 23.1342 640.076 24.6118C634.916 26.8278 630.54 30.5202 627.442 35.1714C624.346 39.8198 622.534 45.4556 622.536 51.4798C622.536 51.5792 622.544 51.6804 622.544 51.781H622.388C622.388 54.5698 621.834 57.206 620.832 59.6094C619.33 63.2134 616.814 66.2956 613.65 68.4654C610.481 70.6348 606.692 71.8968 602.574 71.8992C599.824 71.8976 597.229 71.336 594.861 70.3186C591.311 68.796 588.277 66.2388 586.137 63.0252C585.137 61.519 584.334 59.8716 583.762 58.1186C583.393 57.9354 582.995 57.7294 582.574 57.5012C580.544 56.3976 578 54.7872 575.914 52.6736C575.04 51.7858 574.257 50.9088 573.554 50.0602C573.6 50.626 573.627 51.1994 573.627 51.781C573.627 54.5698 573.074 57.206 572.072 59.6094C570.572 63.2134 568.053 66.2956 564.888 68.4654C561.72 70.6348 557.93 71.8968 553.813 71.8992C551.063 71.8976 548.468 71.336 546.1 70.3186C542.549 68.796 539.515 66.2388 537.378 63.0252C535.24 59.8086 533.997 55.9608 533.996 51.781C533.996 48.9906 534.551 46.3542 535.552 43.9498C537.052 40.3454 539.571 37.2652 542.735 35.0942C545.904 32.9248 549.692 31.662 553.813 31.6612C556.56 31.6612 559.155 32.2248 561.524 33.2406C565.075 34.7646 568.108 37.321 570.246 40.534C570.294 40.6072 570.34 40.681 570.387 40.7552L570.4 40.75L570.401 40.7564L570.414 40.7896C570.415 40.7946 570.42 40.8032 570.422 40.8104C570.504 40.9386 570.581 41.0724 570.66 41.2014C570.86 41.6576 571.258 42.5224 571.887 43.6506C571.951 43.7634 572.018 43.8822 572.086 44.0012C572.138 44.1264 572.195 44.2486 572.244 44.3746C572.828 45.3412 573.572 46.4522 574.491 47.6434C574.541 47.709 574.588 47.7728 574.639 47.8376C575.442 48.887 576.387 49.9816 577.469 51.0546C577.476 51.0626 577.482 51.0688 577.488 51.0748C577.497 51.0838 577.505 51.0906 577.513 51.0996C577.685 51.2698 577.858 51.4368 578.038 51.6044C578.108 51.6688 578.177 51.7336 578.247 51.7974C579.381 52.8428 580.652 53.8536 582.093 54.7618C583.712 55.7832 585.536 56.6702 587.556 57.308C589.577 57.9476 591.793 58.335 594.161 58.3718H594.164C594.368 58.3752 594.568 58.3774 594.767 58.3774C598.583 58.3782 602.005 57.7726 605.01 56.6938C607.265 55.8862 609.279 54.8164 611.046 53.577C613.698 51.7146 615.79 49.4822 617.42 47.1946C619.05 44.9024 620.224 42.5534 621.08 40.3854C621.734 38.726 622.07 37.0774 622.07 35.4988C622.07 34.5904 621.96 33.7134 621.754 32.8962C621.396 31.4652 620.756 30.2428 620.044 29.281C618.968 27.8316 617.764 26.9286 616.828 26.3426C615.882 25.7596 615.178 25.49 614.968 25.413L614.952 25.464C611.199 23.643 606.993 22.619 602.574 22.6198C598.619 22.619 594.83 23.4344 591.391 24.9126C588.025 26.3594 584.996 28.4348 582.433 30.9938V2.98975H573.529V27.3826C574.073 27.9114 574.639 28.485 575.225 29.1112C577.478 31.5154 578.937 33.8386 580.218 35.9754C581.501 38.1182 582.609 40.06 584.166 41.8324C584.402 42.1038 584.653 42.3708 584.915 42.636C586.445 39.5974 588.722 36.9968 591.497 35.0942C594.663 32.9248 598.453 31.662 602.574 31.6612C606.186 31.662 609.54 32.6324 612.453 34.336L612.488 34.2734C612.679 34.4246 612.853 34.5996 612.95 34.75C613.022 34.8562 613.068 34.948 613.102 35.0538C613.134 35.1594 613.164 35.2828 613.164 35.4988C613.164 35.7886 613.108 36.269 612.811 37.027C612.251 38.447 611.512 39.945 610.565 41.3674C609.855 42.4342 609.029 43.46 608.076 44.3944C606.641 45.7968 604.928 47.001 602.779 47.884C600.63 48.7652 598.028 49.334 594.767 49.3348C594.614 49.3348 594.462 49.334 594.31 49.3318H594.307C592.96 49.3086 591.747 49.1166 590.621 48.7998C588.656 48.2452 586.949 47.3014 585.449 46.1416C584.925 45.7368 584.43 45.3022 583.962 44.853C583.962 44.8508 583.962 44.8452 583.965 44.841C583.74 44.6306 583.525 44.4176 583.315 44.2054C582.083 42.9164 581.077 41.5528 580.339 40.3784C579.776 39.4846 579.196 38.7398 578.934 38.21C578.804 37.9438 578.543 37.531 578.543 37.531C577.211 35.3004 575.826 33.0336 573.613 30.6694C573.584 30.638 573.555 30.6122 573.529 30.5806V30.5822C572.392 29.4928 571.173 28.4926 569.873 27.6012C565.294 24.4588 559.745 22.6174 553.813 22.6198C549.858 22.619 546.07 23.4344 542.63 24.9126C537.47 27.13 533.094 30.822 529.998 35.4726C526.902 40.1208 525.088 45.7558 525.09 51.781C525.088 55.794 525.893 59.6416 527.349 63.1318C529.532 68.3716 533.168 72.814 537.75 75.9576C542.328 79.1022 547.878 80.9424 553.813 80.9414C557.765 80.9418 561.555 80.125 564.994 78.6466C570.154 76.43 574.529 72.7386 577.627 68.0878C577.82 67.7942 578.01 67.4988 578.194 67.1976C580.334 70.679 583.17 73.6648 586.509 75.9576C591.089 79.1022 596.638 80.9424 602.574 80.9414C606.525 80.9418 610.315 80.125 613.754 78.6466C618.91 76.43 623.29 72.7386 626.384 68.0878C626.6 67.7656 626.808 67.438 627.008 67.1046C629.134 70.496 631.92 73.4098 635.198 75.6564C639.776 78.8 645.324 80.6402 651.258 80.6396C655.208 80.6402 659.002 79.824 662.438 78.346C665.654 76.9658 668.562 75.012 671.048 72.6108V80.752H679.954V61.6506L683.296 57.6234L701.58 80.752H713L689.142 50.574ZM679.954 2.98975H671.048V51.3396C671.048 52.6512 670.922 53.9272 670.684 55.164L679.954 43.9266V2.98975Z" fill="#190B5A"/>
<path d="M464.028 23.7314V47.4274C464.028 58.4662 457.353 65.1336 447.234 65.1336C437.114 65.1336 430.01 58.4662 430.01 47.4274V2.94141H413V47.4274C413 67.648 426.348 80.218 447.234 80.218C468.011 80.218 481.038 67.648 481.038 47.4274V2.94141H480.74C471.769 5.86562 465.077 13.936 464.028 23.7314Z" fill="url(#paint0_linear)"/>
<path d="M495.6 2.94141H495.308V79.4541H512.318V23.7469C512.157 15.2442 504.575 5.8675 495.6 2.94141Z" fill="url(#paint1_linear)"/>
<path d="M464.028 23.7314V47.4274C464.028 47.4416 464.027 47.4558 464.027 47.4716C464.031 47.7072 464.044 47.941 464.044 48.1784C464.044 64.137 452.206 77.2812 436.961 79.0722C440.134 79.8226 443.566 80.218 447.234 80.218C468.011 80.218 481.038 67.648 481.038 47.4274V2.94141H480.74C471.769 5.86562 465.077 13.936 464.028 23.7314Z" fill="url(#paint2_linear)"/>
<path d="M430.01 23.7698V2.94141H413V2.94478C422.044 5.87425 428.82 13.9428 430.01 23.7698Z" fill="url(#paint3_linear)"/>
<path d="M495.308 56.7804V79.454H512.11C502.74 76.097 495.907 67.2894 495.308 56.7804Z" fill="url(#paint4_linear)"/>
<path d="M1289 49.9893V31.6559C1289 29.8884 1288.29 28.1939 1287.05 26.9441C1285.8 25.6943 1284.1 24.9912 1282.33 24.9893H1264C1264 19.222 1266 13.6333 1269.65 9.16997C1273.31 4.70662 1278.39 1.64295 1284.04 0.497876C1289.69 -0.647193 1295.57 0.196739 1300.67 2.88673C1305.77 5.57671 1309.79 9.94738 1312.04 15.2584C1313.64 19.0597 1314.29 23.2002 1313.9 27.31C1313.52 31.4198 1312.13 35.371 1309.85 38.8107C1307.56 42.2504 1304.47 45.0716 1300.83 47.0222C1297.19 48.9728 1293.13 49.9922 1289 49.9893V49.9893Z" fill="url(#paint5_linear)"/>
<path d="M1282.33 24.9893H1245.67C1241.98 24.9893 1239 27.974 1239 31.6559V68.3226C1239 72.0045 1241.98 74.9893 1245.67 74.9893H1282.33C1286.02 74.9893 1289 72.0045 1289 68.3226V31.6559C1289 27.974 1286.02 24.9893 1282.33 24.9893Z" fill="url(#paint6_linear)"/>
<path d="M1264 74.9893C1264 68.3588 1266.63 62 1271.32 57.3116C1276.01 52.6232 1282.37 49.9893 1289 49.9893V68.3226C1289 70.0907 1288.3 71.7864 1287.05 73.0366C1285.8 74.2869 1284.1 74.9893 1282.33 74.9893H1264Z" fill="url(#paint7_linear)"/>
<path d="M1239 49.9893V31.6559C1239 29.8878 1239.7 28.1921 1240.95 26.9419C1242.2 25.6916 1243.9 24.9893 1245.67 24.9893H1264C1264 31.6197 1261.37 37.9785 1256.68 42.6669C1251.99 47.3553 1245.63 49.9893 1239 49.9893V49.9893Z" fill="url(#paint8_linear)"/>
<path d="M1345.97 61H1354.66L1342.46 27.304H1332.96L1320.77 61H1329.36L1331.38 55.048H1343.95L1345.97 61ZM1341.84 48.712H1333.54L1337.66 36.376L1341.84 48.712ZM1370.7 50.968L1364.51 34.216H1355.34L1366.24 60.088L1360.09 73.72H1368.93L1385.73 34.216H1376.85L1370.7 50.968ZM1396.9 48.568C1396.9 43.96 1399.16 42.616 1403.05 42.616H1405.3V33.928C1401.7 33.928 1398.77 35.848 1396.9 38.68V34.216H1388.69V61H1396.9V48.568ZM1435.43 47.608C1435.43 39.112 1429.39 33.832 1421.51 33.832C1413.69 33.832 1407.59 39.112 1407.59 47.608C1407.59 56.104 1413.55 61.384 1421.42 61.384C1429.29 61.384 1435.43 56.104 1435.43 47.608ZM1415.95 47.608C1415.95 43.048 1418.54 40.936 1421.51 40.936C1424.39 40.936 1427.08 43.048 1427.08 47.608C1427.08 52.12 1424.35 54.28 1421.42 54.28C1418.44 54.28 1415.95 52.12 1415.95 47.608ZM1453.21 48.664C1453.21 57.352 1458.87 61.336 1465.79 61.336C1472.7 61.336 1478.41 57.352 1478.41 48.664V27.544H1474.04V48.712C1474.04 54.856 1470.78 57.496 1465.83 57.496C1460.89 57.496 1457.58 54.856 1457.58 48.712V27.544H1453.21V48.664ZM1485.7 61H1490.06V27.544H1485.7V61Z" fill="black"/>
<defs>
<linearGradient id="paint0_linear" x1="471.212" y1="72.7488" x2="425.871" y2="-4.60297" gradientUnits="userSpaceOnUse">
<stop stop-color="#C5259A"/>
<stop offset="0.169697" stop-color="#55369B"/>
<stop offset="0.575758" stop-color="#4779C6"/>
<stop offset="1" stop-color="#70D0E4"/>
</linearGradient>
<linearGradient id="paint1_linear" x1="503.813" y1="2.94141" x2="503.813" y2="79.4543" gradientUnits="userSpaceOnUse">
<stop stop-color="#7A2393"/>
<stop offset="0.472727" stop-color="#951E93"/>
<stop offset="1" stop-color="#EE197F"/>
</linearGradient>
<linearGradient id="paint2_linear" x1="459" y1="2.94141" x2="459" y2="80.2184" gradientUnits="userSpaceOnUse">
<stop stop-color="#7A2393"/>
<stop offset="0.472727" stop-color="#951E93"/>
<stop offset="0.890909" stop-color="#EE197F"/>
<stop offset="1" stop-color="#EE1A98"/>
</linearGradient>
<linearGradient id="paint3_linear" x1="419.429" y1="16.0342" x2="430.139" y2="2.6294" gradientUnits="userSpaceOnUse">
<stop stop-color="#423A9C"/>
<stop offset="0.327273" stop-color="#4779C6"/>
<stop offset="1" stop-color="#70D0E4"/>
</linearGradient>
<linearGradient id="paint4_linear" x1="504.349" y1="67.333" x2="493.995" y2="79.6408" gradientUnits="userSpaceOnUse">
<stop stop-color="#3F2D92"/>
<stop offset="0.193939" stop-color="#951E93"/>
<stop offset="1" stop-color="#EE197F"/>
</linearGradient>
<linearGradient id="paint5_linear" x1="1289.01" y1="0" x2="1289.01" y2="49.9893" gradientUnits="userSpaceOnUse">
<stop stop-color="#2BDBDC"/>
<stop offset="1" stop-color="#0067F4"/>
</linearGradient>
<linearGradient id="paint6_linear" x1="1264" y1="24.9893" x2="1264" y2="74.9893" gradientUnits="userSpaceOnUse">
<stop stop-color="#2BDBDC"/>
<stop offset="1" stop-color="#0067F4"/>
</linearGradient>
<linearGradient id="paint7_linear" x1="1276.5" y1="49.9893" x2="1276.5" y2="74.9893" gradientUnits="userSpaceOnUse">
<stop stop-color="#2BDBDC"/>
<stop offset="1" stop-color="#0067F4"/>
</linearGradient>
<linearGradient id="paint8_linear" x1="1251.5" y1="24.9893" x2="1251.5" y2="49.9893" gradientUnits="userSpaceOnUse">
<stop stop-color="#2BDBDC"/>
<stop offset="1" stop-color="#0067F4"/>
</linearGradient>
</defs>
</svg>
